<?xml version="1.0" encoding="UTF-8" standalone="no"?>
<!-- Created with Inkscape (http://www.inkscape.org/) -->

<svg
   xmlns:dc="http://purl.org/dc/elements/1.1/"
   xmlns:cc="http://creativecommons.org/ns#"
   xmlns:rdf="http://www.w3.org/1999/02/22-rdf-syntax-ns#"
   xmlns:svg="http://www.w3.org/2000/svg"
   xmlns="http://www.w3.org/2000/svg"
   xmlns:sodipodi="http://sodipodi.sourceforge.net/DTD/sodipodi-0.dtd"
   xmlns:inkscape="http://www.inkscape.org/namespaces/inkscape"
   width="293.83728"
   height="128.10786"
   id="svg2"
   version="1.1"
   inkscape:version="0.48.1 r9760"
   sodipodi:docname="neighbormask_effect.svg">
  <defs
     id="defs4" />
  <sodipodi:namedview
     id="base"
     pagecolor="#ffffff"
     bordercolor="#666666"
     borderopacity="1.0"
     inkscape:pageopacity="0.0"
     inkscape:pageshadow="2"
     inkscape:zoom="2.8"
     inkscape:cx="128.44032"
     inkscape:cy="74.749652"
     inkscape:document-units="px"
     inkscape:current-layer="layer1"
     showgrid="false"
     inkscape:window-width="1920"
     inkscape:window-height="1125"
     inkscape:window-x="0"
     inkscape:window-y="25"
     inkscape:window-maximized="1"
     fit-margin-top="0"
     fit-margin-left="0"
     fit-margin-right="0"
     fit-margin-bottom="0" />
  <metadata
     id="metadata7">
    <rdf:RDF>
      <cc:Work
         rdf:about="">
        <dc:format>image/svg+xml</dc:format>
        <dc:type
           rdf:resource="http://purl.org/dc/dcmitype/StillImage" />
        <dc:title />
      </cc:Work>
    </rdf:RDF>
  </metadata>
  <g
     inkscape:label="Layer 1"
     inkscape:groupmode="layer"
     id="layer1"
     transform="translate(-164.76064,-303.54761)">
    <rect
       style="fill:#ececec;fill-opacity:1;fill-rule:nonzero;stroke:#000000;stroke-width:1.19299996;stroke-linejoin:miter;stroke-miterlimit:4;stroke-opacity:0.21610167;stroke-dasharray:none;stroke-dashoffset:0"
       id="rect2987"
       width="72.85714"
       height="72.85714"
       x="274.28577"
       y="357.36218" />
    <path
       sodipodi:type="arc"
       style="fill:none;stroke:#000000;stroke-width:1.19299996;stroke-linejoin:miter;stroke-miterlimit:4;stroke-opacity:1;stroke-dasharray:none;stroke-dashoffset:0"
       id="path3757"
       sodipodi:cx="88.928574"
       sodipodi:cy="349.86218"
       sodipodi:rx="8.2142859"
       sodipodi:ry="8.2142859"
       d="m 97.142859,349.86218 c 0,4.53663 -3.677661,8.21429 -8.214285,8.21429 -4.536625,0 -8.214286,-3.67766 -8.214286,-8.21429 0,-4.53662 3.677661,-8.21428 8.214286,-8.21428 4.536624,0 8.214285,3.67766 8.214285,8.21428 z"
       transform="translate(305.61543,-9.8822193)" />
    <path
       sodipodi:type="arc"
       style="fill:none;stroke:#000000;stroke-width:1.19299996;stroke-linejoin:miter;stroke-miterlimit:4;stroke-opacity:1;stroke-dasharray:none;stroke-dashoffset:0"
       id="path3757-8"
       sodipodi:cx="88.928574"
       sodipodi:cy="349.86218"
       sodipodi:rx="8.2142859"
       sodipodi:ry="8.2142859"
       d="m 97.142859,349.86218 c 0,4.53663 -3.677661,8.21429 -8.214285,8.21429 -4.536625,0 -8.214286,-3.67766 -8.214286,-8.21429 0,-4.53662 3.677661,-8.21428 8.214286,-8.21428 4.536624,0 8.214285,3.67766 8.214285,8.21428 z"
       transform="translate(333.237,17.739352)" />
    <path
       sodipodi:type="arc"
       style="fill:none;stroke:#000000;stroke-width:1.19299996;stroke-linejoin:miter;stroke-miterlimit:4;stroke-opacity:1;stroke-dasharray:none;stroke-dashoffset:0"
       id="path3757-5"
       sodipodi:cx="88.928574"
       sodipodi:cy="349.86218"
       sodipodi:rx="8.2142859"
       sodipodi:ry="8.2142859"
       d="m 97.142859,349.86218 c 0,4.53663 -3.677661,8.21429 -8.214285,8.21429 -4.536625,0 -8.214286,-3.67766 -8.214286,-8.21429 0,-4.53662 3.677661,-8.21428 8.214286,-8.21428 4.536624,0 8.214285,3.67766 8.214285,8.21428 z"
       transform="translate(305.61543,17.739352)" />
    <path
       sodipodi:type="arc"
       style="fill:none;stroke:#000000;stroke-width:1.19299996;stroke-linejoin:miter;stroke-miterlimit:4;stroke-opacity:1;stroke-dasharray:none;stroke-dashoffset:0"
       id="path3757-84"
       sodipodi:cx="88.928574"
       sodipodi:cy="349.86218"
       sodipodi:rx="8.2142859"
       sodipodi:ry="8.2142859"
       d="m 97.142859,349.86218 c 0,4.53663 -3.677661,8.21429 -8.214285,8.21429 -4.536625,0 -8.214286,-3.67766 -8.214286,-8.21429 0,-4.53662 3.677661,-8.21428 8.214286,-8.21428 4.536624,0 8.214285,3.67766 8.214285,8.21428 z"
       transform="translate(277.99386,17.739352)" />
    <path
       sodipodi:type="arc"
       style="fill:none;stroke:#000000;stroke-width:1.19299996;stroke-linejoin:miter;stroke-miterlimit:4;stroke-opacity:1;stroke-dasharray:none;stroke-dashoffset:0"
       id="path3757-38"
       sodipodi:cx="88.928574"
       sodipodi:cy="349.86218"
       sodipodi:rx="8.2142859"
       sodipodi:ry="8.2142859"
       d="m 97.142859,349.86218 c 0,4.53663 -3.677661,8.21429 -8.214285,8.21429 -4.536625,0 -8.214286,-3.67766 -8.214286,-8.21429 0,-4.53662 3.677661,-8.21428 8.214286,-8.21428 4.536624,0 8.214285,3.67766 8.214285,8.21428 z"
       transform="translate(360.85857,-9.8822193)" />
    <path
       sodipodi:type="arc"
       style="fill:none;stroke:#000000;stroke-width:1.19299996;stroke-linejoin:miter;stroke-miterlimit:4;stroke-opacity:1;stroke-dasharray:none;stroke-dashoffset:0"
       id="path3757-0"
       sodipodi:cx="88.928574"
       sodipodi:cy="349.86218"
       sodipodi:rx="8.2142859"
       sodipodi:ry="8.2142859"
       d="m 97.142859,349.86218 c 0,4.53663 -3.677661,8.21429 -8.214285,8.21429 -4.536625,0 -8.214286,-3.67766 -8.214286,-8.21429 0,-4.53662 3.677661,-8.21428 8.214286,-8.21428 4.536624,0 8.214285,3.67766 8.214285,8.21428 z"
       transform="translate(112.26443,-9.8822193)" />
    <path
       sodipodi:type="arc"
       style="fill:none;stroke:#000000;stroke-width:1.19299996;stroke-linejoin:miter;stroke-miterlimit:4;stroke-opacity:1;stroke-dasharray:none;stroke-dashoffset:0"
       id="path3757-84-1"
       sodipodi:cx="88.928574"
       sodipodi:cy="349.86218"
       sodipodi:rx="8.2142859"
       sodipodi:ry="8.2142859"
       d="m 97.142859,349.86218 c 0,4.53663 -3.677661,8.21429 -8.214285,8.21429 -4.536625,0 -8.214286,-3.67766 -8.214286,-8.21429 0,-4.53662 3.677661,-8.21428 8.214286,-8.21428 4.536624,0 8.214285,3.67766 8.214285,8.21428 z"
       transform="translate(167.50757,72.982496)" />
    <path
       sodipodi:type="arc"
       style="fill:none;stroke:#000000;stroke-width:1.19299996;stroke-linejoin:miter;stroke-miterlimit:4;stroke-opacity:1;stroke-dasharray:none;stroke-dashoffset:0"
       id="path3757-3-0"
       sodipodi:cx="88.928574"
       sodipodi:cy="349.86218"
       sodipodi:rx="8.2142859"
       sodipodi:ry="8.2142859"
       d="m 97.142859,349.86218 c 0,4.53663 -3.677661,8.21429 -8.214285,8.21429 -4.536625,0 -8.214286,-3.67766 -8.214286,-8.21429 0,-4.53662 3.677661,-8.21428 8.214286,-8.21428 4.536624,0 8.214285,3.67766 8.214285,8.21428 z"
       transform="translate(139.886,72.982496)" />
    <path
       sodipodi:type="arc"
       style="fill:none;stroke:#000000;stroke-width:1.19299996;stroke-linejoin:miter;stroke-miterlimit:4;stroke-opacity:1;stroke-dasharray:none;stroke-dashoffset:0"
       id="path3757-7-4"
       sodipodi:cx="88.928574"
       sodipodi:cy="349.86218"
       sodipodi:rx="8.2142859"
       sodipodi:ry="8.2142859"
       d="m 97.142859,349.86218 c 0,4.53663 -3.677661,8.21429 -8.214285,8.21429 -4.536625,0 -8.214286,-3.67766 -8.214286,-8.21429 0,-4.53662 3.677661,-8.21428 8.214286,-8.21428 4.536624,0 8.214285,3.67766 8.214285,8.21428 z"
       transform="translate(112.26443,72.982496)" />
    <path
       sodipodi:type="arc"
       style="fill:none;stroke:#000000;stroke-width:1.19299996;stroke-linejoin:miter;stroke-miterlimit:4;stroke-opacity:1;stroke-dasharray:none;stroke-dashoffset:0"
       id="path3757-1-2"
       sodipodi:cx="88.928574"
       sodipodi:cy="349.86218"
       sodipodi:rx="8.2142859"
       sodipodi:ry="8.2142859"
       d="m 97.142859,349.86218 c 0,4.53663 -3.677661,8.21429 -8.214285,8.21429 -4.536625,0 -8.214286,-3.67766 -8.214286,-8.21429 0,-4.53662 3.677661,-8.21428 8.214286,-8.21428 4.536624,0 8.214285,3.67766 8.214285,8.21428 z"
       transform="translate(277.99386,45.360924)" />
    <path
       sodipodi:type="arc"
       style="fill:none;stroke:#000000;stroke-width:1.19299996;stroke-linejoin:miter;stroke-miterlimit:4;stroke-opacity:1;stroke-dasharray:none;stroke-dashoffset:0"
       id="path3757-9-0"
       sodipodi:cx="88.928574"
       sodipodi:cy="349.86218"
       sodipodi:rx="8.2142859"
       sodipodi:ry="8.2142859"
       d="m 97.142859,349.86218 c 0,4.53663 -3.677661,8.21429 -8.214285,8.21429 -4.536625,0 -8.214286,-3.67766 -8.214286,-8.21429 0,-4.53662 3.677661,-8.21428 8.214286,-8.21428 4.536624,0 8.214285,3.67766 8.214285,8.21428 z"
       transform="translate(167.50757,45.360924)" />
    <path
       sodipodi:type="arc"
       style="fill:none;stroke:#000000;stroke-width:1.19299996;stroke-linejoin:miter;stroke-miterlimit:4;stroke-opacity:1;stroke-dasharray:none;stroke-dashoffset:0"
       id="path3757-32"
       sodipodi:cx="88.928574"
       sodipodi:cy="349.86218"
       sodipodi:rx="8.2142859"
       sodipodi:ry="8.2142859"
       d="m 97.142859,349.86218 c 0,4.53663 -3.677661,8.21429 -8.214285,8.21429 -4.536625,0 -8.214286,-3.67766 -8.214286,-8.21429 0,-4.53662 3.677661,-8.21428 8.214286,-8.21428 4.536624,0 8.214285,3.67766 8.214285,8.21428 z"
       transform="translate(112.26443,-37.503791)" />
    <path
       sodipodi:type="arc"
       style="fill:none;stroke:#000000;stroke-width:1.19299996;stroke-linejoin:miter;stroke-miterlimit:4;stroke-opacity:1;stroke-dasharray:none;stroke-dashoffset:0"
       id="path3757-8-8"
       sodipodi:cx="88.928574"
       sodipodi:cy="349.86218"
       sodipodi:rx="8.2142859"
       sodipodi:ry="8.2142859"
       d="m 97.142859,349.86218 c 0,4.53663 -3.677661,8.21429 -8.214285,8.21429 -4.536625,0 -8.214286,-3.67766 -8.214286,-8.21429 0,-4.53662 3.677661,-8.21428 8.214286,-8.21428 4.536624,0 8.214285,3.67766 8.214285,8.21428 z"
       transform="translate(333.237,-9.8822193)" />
    <path
       sodipodi:type="arc"
       style="fill:none;stroke:#000000;stroke-width:1.19299996;stroke-linejoin:miter;stroke-miterlimit:4;stroke-opacity:1;stroke-dasharray:none;stroke-dashoffset:0"
       id="path3757-5-0"
       sodipodi:cx="88.928574"
       sodipodi:cy="349.86218"
       sodipodi:rx="8.2142859"
       sodipodi:ry="8.2142859"
       d="m 97.142859,349.86218 c 0,4.53663 -3.677661,8.21429 -8.214285,8.21429 -4.536625,0 -8.214286,-3.67766 -8.214286,-8.21429 0,-4.53662 3.677661,-8.21428 8.214286,-8.21428 4.536624,0 8.214285,3.67766 8.214285,8.21428 z"
       transform="translate(277.99386,-9.8822193)" />
    <path
       sodipodi:type="arc"
       style="fill:none;stroke:#000000;stroke-width:1.19299996;stroke-linejoin:miter;stroke-miterlimit:4;stroke-opacity:1;stroke-dasharray:none;stroke-dashoffset:0"
       id="path3757-84-3"
       sodipodi:cx="88.928574"
       sodipodi:cy="349.86218"
       sodipodi:rx="8.2142859"
       sodipodi:ry="8.2142859"
       d="m 97.142859,349.86218 c 0,4.53663 -3.677661,8.21429 -8.214285,8.21429 -4.536625,0 -8.214286,-3.67766 -8.214286,-8.21429 0,-4.53662 3.677661,-8.21428 8.214286,-8.21428 4.536624,0 8.214285,3.67766 8.214285,8.21428 z"
       transform="translate(84.642854,-9.8822193)" />
    <path
       sodipodi:type="arc"
       style="fill:none;stroke:#000000;stroke-width:1.19299996;stroke-linejoin:miter;stroke-miterlimit:4;stroke-opacity:1;stroke-dasharray:none;stroke-dashoffset:0"
       id="path3757-3-7"
       sodipodi:cx="88.928574"
       sodipodi:cy="349.86218"
       sodipodi:rx="8.2142859"
       sodipodi:ry="8.2142859"
       d="m 97.142859,349.86218 c 0,4.53663 -3.677661,8.21429 -8.214285,8.21429 -4.536625,0 -8.214286,-3.67766 -8.214286,-8.21429 0,-4.53662 3.677661,-8.21428 8.214286,-8.21428 4.536624,0 8.214285,3.67766 8.214285,8.21428 z"
       transform="translate(360.85857,-37.503791)" />
    <path
       sodipodi:type="arc"
       style="fill:none;stroke:#000000;stroke-width:1.19299996;stroke-linejoin:miter;stroke-miterlimit:4;stroke-opacity:1;stroke-dasharray:none;stroke-dashoffset:0"
       id="path3757-7-0"
       sodipodi:cx="88.928574"
       sodipodi:cy="349.86218"
       sodipodi:rx="8.2142859"
       sodipodi:ry="8.2142859"
       d="m 97.142859,349.86218 c 0,4.53663 -3.677661,8.21429 -8.214285,8.21429 -4.536625,0 -8.214286,-3.67766 -8.214286,-8.21429 0,-4.53662 3.677661,-8.21428 8.214286,-8.21428 4.536624,0 8.214285,3.67766 8.214285,8.21428 z"
       transform="translate(333.237,-37.503791)" />
    <path
       sodipodi:type="arc"
       style="fill:none;stroke:#000000;stroke-width:1.19299996;stroke-linejoin:miter;stroke-miterlimit:4;stroke-opacity:1;stroke-dasharray:none;stroke-dashoffset:0"
       id="path3757-1-0"
       sodipodi:cx="88.928574"
       sodipodi:cy="349.86218"
       sodipodi:rx="8.2142859"
       sodipodi:ry="8.2142859"
       d="m 97.142859,349.86218 c 0,4.53663 -3.677661,8.21429 -8.214285,8.21429 -4.536625,0 -8.214286,-3.67766 -8.214286,-8.21429 0,-4.53662 3.677661,-8.21428 8.214286,-8.21428 4.536624,0 8.214285,3.67766 8.214285,8.21428 z"
       transform="translate(167.50757,-37.503791)" />
    <path
       sodipodi:type="arc"
       style="fill:none;stroke:#000000;stroke-width:1.19299996;stroke-linejoin:miter;stroke-miterlimit:4;stroke-opacity:1;stroke-dasharray:none;stroke-dashoffset:0"
       id="path3757-38-3"
       sodipodi:cx="88.928574"
       sodipodi:cy="349.86218"
       sodipodi:rx="8.2142859"
       sodipodi:ry="8.2142859"
       d="m 97.142859,349.86218 c 0,4.53663 -3.677661,8.21429 -8.214285,8.21429 -4.536625,0 -8.214286,-3.67766 -8.214286,-8.21429 0,-4.53662 3.677661,-8.21428 8.214286,-8.21428 4.536624,0 8.214285,3.67766 8.214285,8.21428 z"
       transform="translate(139.886,-37.503791)" />
    <path
       sodipodi:type="arc"
       style="fill:none;stroke:#000000;stroke-width:1.19299996;stroke-linejoin:miter;stroke-miterlimit:4;stroke-opacity:1;stroke-dasharray:none;stroke-dashoffset:0"
       id="path3757-0-49"
       sodipodi:cx="88.928574"
       sodipodi:cy="349.86218"
       sodipodi:rx="8.2142859"
       sodipodi:ry="8.2142859"
       d="m 97.142859,349.86218 c 0,4.53663 -3.677661,8.21429 -8.214285,8.21429 -4.536625,0 -8.214286,-3.67766 -8.214286,-8.21429 0,-4.53662 3.677661,-8.21428 8.214286,-8.21428 4.536624,0 8.214285,3.67766 8.214285,8.21428 z"
       transform="translate(84.642854,-37.503791)" />
    <path
       sodipodi:type="arc"
       style="fill:none;stroke:#000000;stroke-width:1.19299996;stroke-linejoin:miter;stroke-miterlimit:4;stroke-opacity:1;stroke-dasharray:none;stroke-dashoffset:0"
       id="path3757-13"
       sodipodi:cx="88.928574"
       sodipodi:cy="349.86218"
       sodipodi:rx="8.2142859"
       sodipodi:ry="8.2142859"
       d="m 97.142859,349.86218 c 0,4.53663 -3.677661,8.21429 -8.214285,8.21429 -4.536625,0 -8.214286,-3.67766 -8.214286,-8.21429 0,-4.53662 3.677661,-8.21428 8.214286,-8.21428 4.536624,0 8.214285,3.67766 8.214285,8.21428 z"
       transform="translate(112.26443,17.739352)" />
    <path
       sodipodi:type="arc"
       style="fill:none;stroke:#000000;stroke-width:1.19299996;stroke-linejoin:miter;stroke-miterlimit:4;stroke-opacity:1;stroke-dasharray:none;stroke-dashoffset:0"
       id="path3757-8-3"
       sodipodi:cx="88.928574"
       sodipodi:cy="349.86218"
       sodipodi:rx="8.2142859"
       sodipodi:ry="8.2142859"
       d="m 97.142859,349.86218 c 0,4.53663 -3.677661,8.21429 -8.214285,8.21429 -4.536625,0 -8.214286,-3.67766 -8.214286,-8.21429 0,-4.53662 3.677661,-8.21428 8.214286,-8.21428 4.536624,0 8.214285,3.67766 8.214285,8.21428 z"
       transform="translate(139.886,45.360924)" />
    <path
       sodipodi:type="arc"
       style="fill:none;stroke:#000000;stroke-width:1.19299996;stroke-linejoin:miter;stroke-miterlimit:4;stroke-opacity:1;stroke-dasharray:none;stroke-dashoffset:0"
       id="path3757-5-3"
       sodipodi:cx="88.928574"
       sodipodi:cy="349.86218"
       sodipodi:rx="8.2142859"
       sodipodi:ry="8.2142859"
       d="m 97.142859,349.86218 c 0,4.53663 -3.677661,8.21429 -8.214285,8.21429 -4.536625,0 -8.214286,-3.67766 -8.214286,-8.21429 0,-4.53662 3.677661,-8.21428 8.214286,-8.21428 4.536624,0 8.214285,3.67766 8.214285,8.21428 z"
       transform="translate(112.26443,45.360924)" />
    <path
       sodipodi:type="arc"
       style="fill:#666666;stroke:#000000;stroke-width:1.19299996;stroke-linejoin:miter;stroke-miterlimit:4;stroke-opacity:1;stroke-dasharray:none;stroke-dashoffset:0"
       id="path3757-84-7"
       sodipodi:cx="88.928574"
       sodipodi:cy="349.86218"
       sodipodi:rx="8.2142859"
       sodipodi:ry="8.2142859"
       d="m 97.142859,349.86218 c 0,4.53663 -3.677661,8.21429 -8.214285,8.21429 -4.536625,0 -8.214286,-3.67766 -8.214286,-8.21429 0,-4.53662 3.677661,-8.21428 8.214286,-8.21428 4.536624,0 8.214285,3.67766 8.214285,8.21428 z"
       transform="translate(84.642854,45.360924)" />
    <path
       sodipodi:type="arc"
       style="fill:none;stroke:#000000;stroke-width:1.19299996;stroke-linejoin:miter;stroke-miterlimit:4;stroke-opacity:1;stroke-dasharray:none;stroke-dashoffset:0"
       id="path3757-7-8"
       sodipodi:cx="88.928574"
       sodipodi:cy="349.86218"
       sodipodi:rx="8.2142859"
       sodipodi:ry="8.2142859"
       d="m 97.142859,349.86218 c 0,4.53663 -3.677661,8.21429 -8.214285,8.21429 -4.536625,0 -8.214286,-3.67766 -8.214286,-8.21429 0,-4.53662 3.677661,-8.21428 8.214286,-8.21428 4.536624,0 8.214285,3.67766 8.214285,8.21428 z"
       transform="translate(360.85857,17.739352)" />
    <path
       sodipodi:type="arc"
       style="fill:none;stroke:#000000;stroke-width:1.19299996;stroke-linejoin:miter;stroke-miterlimit:4;stroke-opacity:1;stroke-dasharray:none;stroke-dashoffset:0"
       id="path3757-38-70"
       sodipodi:cx="88.928574"
       sodipodi:cy="349.86218"
       sodipodi:rx="8.2142859"
       sodipodi:ry="8.2142859"
       d="m 97.142859,349.86218 c 0,4.53663 -3.677661,8.21429 -8.214285,8.21429 -4.536625,0 -8.214286,-3.67766 -8.214286,-8.21429 0,-4.53662 3.677661,-8.21428 8.214286,-8.21428 4.536624,0 8.214285,3.67766 8.214285,8.21428 z"
       transform="translate(167.50757,17.739352)" />
    <path
       sodipodi:type="arc"
       style="fill:none;stroke:#000000;stroke-width:1.19299996;stroke-linejoin:miter;stroke-miterlimit:4;stroke-opacity:1;stroke-dasharray:none;stroke-dashoffset:0"
       id="path3757-0-48"
       sodipodi:cx="88.928574"
       sodipodi:cy="349.86218"
       sodipodi:rx="8.2142859"
       sodipodi:ry="8.2142859"
       d="m 97.142859,349.86218 c 0,4.53663 -3.677661,8.21429 -8.214285,8.21429 -4.536625,0 -8.214286,-3.67766 -8.214286,-8.21429 0,-4.53662 3.677661,-8.21428 8.214286,-8.21428 4.536624,0 8.214285,3.67766 8.214285,8.21428 z"
       transform="translate(250.37228,-9.8822193)" />
    <path
       sodipodi:type="arc"
       style="fill:none;stroke:#000000;stroke-width:1.19299996;stroke-linejoin:miter;stroke-miterlimit:4;stroke-opacity:1;stroke-dasharray:none;stroke-dashoffset:0"
       id="path3757-9-4"
       sodipodi:cx="88.928574"
       sodipodi:cy="349.86218"
       sodipodi:rx="8.2142859"
       sodipodi:ry="8.2142859"
       d="m 97.142859,349.86218 c 0,4.53663 -3.677661,8.21429 -8.214285,8.21429 -4.536625,0 -8.214286,-3.67766 -8.214286,-8.21429 0,-4.53662 3.677661,-8.21428 8.214286,-8.21428 4.536624,0 8.214285,3.67766 8.214285,8.21428 z"
       transform="translate(195.12914,-9.8822193)" />
    <path
       sodipodi:type="arc"
       style="fill:#666666;stroke:#000000;stroke-width:1.19299996;stroke-linejoin:miter;stroke-miterlimit:4;stroke-opacity:1;stroke-dasharray:none;stroke-dashoffset:0"
       id="path3757-2-8"
       sodipodi:cx="88.928574"
       sodipodi:cy="349.86218"
       sodipodi:rx="8.2142859"
       sodipodi:ry="8.2142859"
       d="m 97.142859,349.86218 c 0,4.53663 -3.677661,8.21429 -8.214285,8.21429 -4.536625,0 -8.214286,-3.67766 -8.214286,-8.21429 0,-4.53662 3.677661,-8.21428 8.214286,-8.21428 4.536624,0 8.214285,3.67766 8.214285,8.21428 z"
       transform="translate(360.85857,45.360924)" />
    <path
       sodipodi:type="arc"
       style="fill:none;stroke:#000000;stroke-width:1.19299996;stroke-linejoin:miter;stroke-miterlimit:4;stroke-opacity:1;stroke-dasharray:none;stroke-dashoffset:0"
       id="path3757-8-6-1"
       sodipodi:cx="88.928574"
       sodipodi:cy="349.86218"
       sodipodi:rx="8.2142859"
       sodipodi:ry="8.2142859"
       d="m 97.142859,349.86218 c 0,4.53663 -3.677661,8.21429 -8.214285,8.21429 -4.536625,0 -8.214286,-3.67766 -8.214286,-8.21429 0,-4.53662 3.677661,-8.21428 8.214286,-8.21428 4.536624,0 8.214285,3.67766 8.214285,8.21428 z"
       transform="translate(360.85857,72.982496)" />
    <path
       sodipodi:type="arc"
       style="fill:none;stroke:#000000;stroke-width:1.19299996;stroke-linejoin:miter;stroke-miterlimit:4;stroke-opacity:1;stroke-dasharray:none;stroke-dashoffset:0"
       id="path3757-5-9-6"
       sodipodi:cx="88.928574"
       sodipodi:cy="349.86218"
       sodipodi:rx="8.2142859"
       sodipodi:ry="8.2142859"
       d="m 97.142859,349.86218 c 0,4.53663 -3.677661,8.21429 -8.214285,8.21429 -4.536625,0 -8.214286,-3.67766 -8.214286,-8.21429 0,-4.53662 3.677661,-8.21428 8.214286,-8.21428 4.536624,0 8.214285,3.67766 8.214285,8.21428 z"
       transform="translate(333.237,72.982496)" />
    <path
       sodipodi:type="arc"
       style="fill:none;stroke:#000000;stroke-width:1.19299996;stroke-linejoin:miter;stroke-miterlimit:4;stroke-opacity:1;stroke-dasharray:none;stroke-dashoffset:0"
       id="path3757-84-1-8"
       sodipodi:cx="88.928574"
       sodipodi:cy="349.86218"
       sodipodi:rx="8.2142859"
       sodipodi:ry="8.2142859"
       d="m 97.142859,349.86218 c 0,4.53663 -3.677661,8.21429 -8.214285,8.21429 -4.536625,0 -8.214286,-3.67766 -8.214286,-8.21429 0,-4.53662 3.677661,-8.21428 8.214286,-8.21428 4.536624,0 8.214285,3.67766 8.214285,8.21428 z"
       transform="translate(305.61543,72.982496)" />
    <path
       sodipodi:type="arc"
       style="fill:none;stroke:#000000;stroke-width:1.19299996;stroke-linejoin:miter;stroke-miterlimit:4;stroke-opacity:1;stroke-dasharray:none;stroke-dashoffset:0"
       id="path3757-3-0-5"
       sodipodi:cx="88.928574"
       sodipodi:cy="349.86218"
       sodipodi:rx="8.2142859"
       sodipodi:ry="8.2142859"
       d="m 97.142859,349.86218 c 0,4.53663 -3.677661,8.21429 -8.214285,8.21429 -4.536625,0 -8.214286,-3.67766 -8.214286,-8.21429 0,-4.53662 3.677661,-8.21428 8.214286,-8.21428 4.536624,0 8.214285,3.67766 8.214285,8.21428 z"
       transform="translate(277.99386,72.982496)" />
    <path
       sodipodi:type="arc"
       style="fill:none;stroke:#000000;stroke-width:1.19299996;stroke-linejoin:miter;stroke-miterlimit:4;stroke-opacity:1;stroke-dasharray:none;stroke-dashoffset:0"
       id="path3757-1-2-1"
       sodipodi:cx="88.928574"
       sodipodi:cy="349.86218"
       sodipodi:rx="8.2142859"
       sodipodi:ry="8.2142859"
       d="m 97.142859,349.86218 c 0,4.53663 -3.677661,8.21429 -8.214285,8.21429 -4.536625,0 -8.214286,-3.67766 -8.214286,-8.21429 0,-4.53662 3.677661,-8.21428 8.214286,-8.21428 4.536624,0 8.214285,3.67766 8.214285,8.21428 z"
       transform="translate(84.642854,72.982496)" />
    <path
       sodipodi:type="arc"
       style="fill:none;stroke:#000000;stroke-width:1.19299996;stroke-linejoin:miter;stroke-miterlimit:4;stroke-opacity:1;stroke-dasharray:none;stroke-dashoffset:0"
       id="path3757-0-4-9"
       sodipodi:cx="88.928574"
       sodipodi:cy="349.86218"
       sodipodi:rx="8.2142859"
       sodipodi:ry="8.2142859"
       d="m 97.142859,349.86218 c 0,4.53663 -3.677661,8.21429 -8.214285,8.21429 -4.536625,0 -8.214286,-3.67766 -8.214286,-8.21429 0,-4.53662 3.677661,-8.21428 8.214286,-8.21428 4.536624,0 8.214285,3.67766 8.214285,8.21428 z"
       transform="translate(333.237,45.360924)" />
    <path
       sodipodi:type="arc"
       style="fill:none;stroke:#000000;stroke-width:1.19299996;stroke-linejoin:miter;stroke-miterlimit:4;stroke-opacity:1;stroke-dasharray:none;stroke-dashoffset:0"
       id="path3757-9-0-6"
       sodipodi:cx="88.928574"
       sodipodi:cy="349.86218"
       sodipodi:rx="8.2142859"
       sodipodi:ry="8.2142859"
       d="m 97.142859,349.86218 c 0,4.53663 -3.677661,8.21429 -8.214285,8.21429 -4.536625,0 -8.214286,-3.67766 -8.214286,-8.21429 0,-4.53662 3.677661,-8.21428 8.214286,-8.21428 4.536624,0 8.214285,3.67766 8.214285,8.21428 z"
       transform="translate(305.61543,45.360924)" />
    <path
       sodipodi:type="arc"
       style="fill:none;stroke:#000000;stroke-width:1.19299996;stroke-linejoin:miter;stroke-miterlimit:4;stroke-opacity:1;stroke-dasharray:none;stroke-dashoffset:0"
       id="path3757-32-0"
       sodipodi:cx="88.928574"
       sodipodi:cy="349.86218"
       sodipodi:rx="8.2142859"
       sodipodi:ry="8.2142859"
       d="m 97.142859,349.86218 c 0,4.53663 -3.677661,8.21429 -8.214285,8.21429 -4.536625,0 -8.214286,-3.67766 -8.214286,-8.21429 0,-4.53662 3.677661,-8.21428 8.214286,-8.21428 4.536624,0 8.214285,3.67766 8.214285,8.21428 z"
       transform="translate(250.37228,-37.503791)" />
    <path
       sodipodi:type="arc"
       style="fill:none;stroke:#000000;stroke-width:1.19299996;stroke-linejoin:miter;stroke-miterlimit:4;stroke-opacity:1;stroke-dasharray:none;stroke-dashoffset:0"
       id="path3757-8-8-6"
       sodipodi:cx="88.928574"
       sodipodi:cy="349.86218"
       sodipodi:rx="8.2142859"
       sodipodi:ry="8.2142859"
       d="m 97.142859,349.86218 c 0,4.53663 -3.677661,8.21429 -8.214285,8.21429 -4.536625,0 -8.214286,-3.67766 -8.214286,-8.21429 0,-4.53662 3.677661,-8.21428 8.214286,-8.21428 4.536624,0 8.214285,3.67766 8.214285,8.21428 z"
       transform="translate(139.886,17.739352)" />
    <path
       sodipodi:type="arc"
       style="fill:none;stroke:#000000;stroke-width:1.19299996;stroke-linejoin:miter;stroke-miterlimit:4;stroke-opacity:1;stroke-dasharray:none;stroke-dashoffset:0"
       id="path3757-5-0-4"
       sodipodi:cx="88.928574"
       sodipodi:cy="349.86218"
       sodipodi:rx="8.2142859"
       sodipodi:ry="8.2142859"
       d="m 97.142859,349.86218 c 0,4.53663 -3.677661,8.21429 -8.214285,8.21429 -4.536625,0 -8.214286,-3.67766 -8.214286,-8.21429 0,-4.53662 3.677661,-8.21428 8.214286,-8.21428 4.536624,0 8.214285,3.67766 8.214285,8.21428 z"
       transform="translate(84.642854,17.739352)" />
    <path
       sodipodi:type="arc"
       style="fill:none;stroke:#000000;stroke-width:1.19299996;stroke-linejoin:miter;stroke-miterlimit:4;stroke-opacity:1;stroke-dasharray:none;stroke-dashoffset:0"
       id="path3757-84-3-9"
       sodipodi:cx="88.928574"
       sodipodi:cy="349.86218"
       sodipodi:rx="8.2142859"
       sodipodi:ry="8.2142859"
       d="m 97.142859,349.86218 c 0,4.53663 -3.677661,8.21429 -8.214285,8.21429 -4.536625,0 -8.214286,-3.67766 -8.214286,-8.21429 0,-4.53662 3.677661,-8.21428 8.214286,-8.21428 4.536624,0 8.214285,3.67766 8.214285,8.21428 z"
       transform="translate(222.75071,-9.8822193)" />
    <path
       sodipodi:type="arc"
       style="fill:none;stroke:#000000;stroke-width:1.19299996;stroke-linejoin:miter;stroke-miterlimit:4;stroke-opacity:1;stroke-dasharray:none;stroke-dashoffset:0"
       id="path3757-3-7-9"
       sodipodi:cx="88.928574"
       sodipodi:cy="349.86218"
       sodipodi:rx="8.2142859"
       sodipodi:ry="8.2142859"
       d="m 97.142859,349.86218 c 0,4.53663 -3.677661,8.21429 -8.214285,8.21429 -4.536625,0 -8.214286,-3.67766 -8.214286,-8.21429 0,-4.53662 3.677661,-8.21428 8.214286,-8.21428 4.536624,0 8.214285,3.67766 8.214285,8.21428 z"
       transform="translate(167.50757,-9.8822193)" />
    <path
       sodipodi:type="arc"
       style="fill:none;stroke:#000000;stroke-width:1.19299996;stroke-linejoin:miter;stroke-miterlimit:4;stroke-opacity:1;stroke-dasharray:none;stroke-dashoffset:0"
       id="path3757-7-0-0"
       sodipodi:cx="88.928574"
       sodipodi:cy="349.86218"
       sodipodi:rx="8.2142859"
       sodipodi:ry="8.2142859"
       d="m 97.142859,349.86218 c 0,4.53663 -3.677661,8.21429 -8.214285,8.21429 -4.536625,0 -8.214286,-3.67766 -8.214286,-8.21429 0,-4.53662 3.677661,-8.21428 8.214286,-8.21428 4.536624,0 8.214285,3.67766 8.214285,8.21428 z"
       transform="translate(139.886,-9.8822193)" />
    <path
       sodipodi:type="arc"
       style="fill:none;stroke:#000000;stroke-width:1.19299996;stroke-linejoin:miter;stroke-miterlimit:4;stroke-opacity:1;stroke-dasharray:none;stroke-dashoffset:0"
       id="path3757-1-0-8"
       sodipodi:cx="88.928574"
       sodipodi:cy="349.86218"
       sodipodi:rx="8.2142859"
       sodipodi:ry="8.2142859"
       d="m 97.142859,349.86218 c 0,4.53663 -3.677661,8.21429 -8.214285,8.21429 -4.536625,0 -8.214286,-3.67766 -8.214286,-8.21429 0,-4.53662 3.677661,-8.21428 8.214286,-8.21428 4.536624,0 8.214285,3.67766 8.214285,8.21428 z"
       transform="translate(305.61543,-37.503791)" />
    <path
       sodipodi:type="arc"
       style="fill:none;stroke:#000000;stroke-width:1.19299996;stroke-linejoin:miter;stroke-miterlimit:4;stroke-opacity:1;stroke-dasharray:none;stroke-dashoffset:0"
       id="path3757-38-3-9"
       sodipodi:cx="88.928574"
       sodipodi:cy="349.86218"
       sodipodi:rx="8.2142859"
       sodipodi:ry="8.2142859"
       d="m 97.142859,349.86218 c 0,4.53663 -3.677661,8.21429 -8.214285,8.21429 -4.536625,0 -8.214286,-3.67766 -8.214286,-8.21429 0,-4.53662 3.677661,-8.21428 8.214286,-8.21428 4.536624,0 8.214285,3.67766 8.214285,8.21428 z"
       transform="translate(277.99386,-37.503791)" />
    <path
       sodipodi:type="arc"
       style="fill:none;stroke:#000000;stroke-width:1.19299996;stroke-linejoin:miter;stroke-miterlimit:4;stroke-opacity:1;stroke-dasharray:none;stroke-dashoffset:0"
       id="path3757-0-49-3"
       sodipodi:cx="88.928574"
       sodipodi:cy="349.86218"
       sodipodi:rx="8.2142859"
       sodipodi:ry="8.2142859"
       d="m 97.142859,349.86218 c 0,4.53663 -3.677661,8.21429 -8.214285,8.21429 -4.536625,0 -8.214286,-3.67766 -8.214286,-8.21429 0,-4.53662 3.677661,-8.21428 8.214286,-8.21428 4.536624,0 8.214285,3.67766 8.214285,8.21428 z"
       transform="translate(222.75071,-37.503791)" />
    <path
       sodipodi:type="arc"
       style="fill:none;stroke:#000000;stroke-width:1.19299996;stroke-linejoin:miter;stroke-miterlimit:4;stroke-opacity:1;stroke-dasharray:none;stroke-dashoffset:0"
       id="path3757-9-2-1"
       sodipodi:cx="88.928574"
       sodipodi:cy="349.86218"
       sodipodi:rx="8.2142859"
       sodipodi:ry="8.2142859"
       d="m 97.142859,349.86218 c 0,4.53663 -3.677661,8.21429 -8.214285,8.21429 -4.536625,0 -8.214286,-3.67766 -8.214286,-8.21429 0,-4.53662 3.677661,-8.21428 8.214286,-8.21428 4.536624,0 8.214285,3.67766 8.214285,8.21428 z"
       transform="translate(195.12914,-37.503791)" />
    <path
       style="fill:none;stroke:#000000;stroke-width:1px;stroke-linecap:butt;stroke-linejoin:miter;stroke-opacity:1"
       d="m 292.81797,339.44702 10.10153,0 0,0"
       id="path4043"
       inkscape:connector-curvature="0" />
    <path
       style="fill:none;stroke:#000000;stroke-width:1px;stroke-linecap:butt;stroke-linejoin:miter;stroke-opacity:1"
       d="m 320.4709,339.19448 9.97525,0.25254 0,0"
       id="path4045"
       inkscape:connector-curvature="0" />
    <path
       style="fill:none;stroke:#000000;stroke-width:1px;stroke-linecap:butt;stroke-linejoin:miter;stroke-opacity:1"
       d="m 181.25,392.36218 40.35714,-20.53571 0,0"
       id="path4126"
       inkscape:connector-curvature="0" />
    <path
       style="fill:none;stroke:#000000;stroke-width:1px;stroke-linecap:butt;stroke-linejoin:miter;stroke-opacity:1"
       d="m 236.42857,364.86218 39.64286,-21.60714 0,0"
       id="path4128"
       inkscape:connector-curvature="0" />
    <path
       style="fill:none;stroke:#000000;stroke-width:1px;stroke-linecap:butt;stroke-linejoin:miter;stroke-opacity:1"
       d="m 442.32143,390.93361 -40.17857,-19.82143 0,0"
       id="path4132"
       inkscape:connector-curvature="0" />
    <path
       style="fill:none;stroke:#000000;stroke-width:1.01505828px;stroke-linecap:butt;stroke-linejoin:miter;stroke-opacity:1"
       d="m 386.59962,365.21179 -40.52066,-20.34208 0,0"
       id="path4134"
       inkscape:connector-curvature="0" />
  </g>
</svg>
