<?xml version="1.0" encoding="UTF-8" standalone="no"?>
<!-- Created with Inkscape (http://www.inkscape.org/) -->

<svg
   xmlns:dc="http://purl.org/dc/elements/1.1/"
   xmlns:cc="http://creativecommons.org/ns#"
   xmlns:rdf="http://www.w3.org/1999/02/22-rdf-syntax-ns#"
   xmlns:svg="http://www.w3.org/2000/svg"
   xmlns="http://www.w3.org/2000/svg"
   xmlns:sodipodi="http://sodipodi.sourceforge.net/DTD/sodipodi-0.dtd"
   xmlns:inkscape="http://www.inkscape.org/namespaces/inkscape"
   width="744.09448819"
   height="1052.3622047"
   id="svg2"
   version="1.1"
   inkscape:version="0.48.1 r9760"
   sodipodi:docname="New document 1">
  <defs
     id="defs4">
    <clipPath
       clipPathUnits="userSpaceOnUse"
       id="clipPath4568">
      <rect
         style="fill:#ffffff;fill-opacity:0.04524889;stroke:#000000;stroke-opacity:1"
         id="rect4570"
         width="299.28571"
         height="232.85715"
         x="387.14285"
         y="318.07648" />
    </clipPath>
  </defs>
  <sodipodi:namedview
     id="base"
     pagecolor="#ffffff"
     bordercolor="#666666"
     borderopacity="1.0"
     inkscape:pageopacity="0.0"
     inkscape:pageshadow="2"
     inkscape:zoom="2.8"
     inkscape:cx="181.20061"
     inkscape:cy="562.47142"
     inkscape:document-units="px"
     inkscape:current-layer="layer2"
     showgrid="false"
     inkscape:window-width="1366"
     inkscape:window-height="693"
     inkscape:window-x="0"
     inkscape:window-y="25"
     inkscape:window-maximized="1" />
  <metadata
     id="metadata7">
    <rdf:RDF>
      <cc:Work
         rdf:about="">
        <dc:format>image/svg+xml</dc:format>
        <dc:type
           rdf:resource="http://purl.org/dc/dcmitype/StillImage" />
        <dc:title></dc:title>
      </cc:Work>
    </rdf:RDF>
  </metadata>
  <g
     inkscape:label="Layer 1"
     inkscape:groupmode="layer"
     id="layer1" />
  <g
     inkscape:groupmode="layer"
     id="layer3"
     inkscape:label="fine">
    <path
       sodipodi:type="arc"
       style="fill:#ffffff;fill-opacity:1;stroke:#000000;stroke-opacity:1"
       id="path2989-4"
       sodipodi:cx="150"
       sodipodi:cy="379.50504"
       sodipodi:rx="8.5714283"
       sodipodi:ry="8.5714283"
       d="m 158.57143,379.50504 a 8.5714283,8.5714283 0 1 1 -17.14286,0 8.5714283,8.5714283 0 1 1 17.14286,0 z"
       transform="matrix(0.44322299,0,0,0.44322299,153.05719,201.79878)" />
    <path
       sodipodi:type="arc"
       style="fill:#ffffff;fill-opacity:1;stroke:#000000;stroke-opacity:1"
       id="path2989-4-9"
       sodipodi:cx="150"
       sodipodi:cy="379.50504"
       sodipodi:rx="8.5714283"
       sodipodi:ry="8.5714283"
       d="m 158.57143,379.50504 a 8.5714283,8.5714283 0 1 1 -17.14286,0 8.5714283,8.5714283 0 1 1 17.14286,0 z"
       transform="matrix(0.44322299,0,0,0.44322299,130.01586,201.79878)" />
    <path
       sodipodi:type="arc"
       style="fill:#ffffff;fill-opacity:1;stroke:#000000;stroke-opacity:1"
       id="path2989-4-6"
       sodipodi:cx="150"
       sodipodi:cy="379.50504"
       sodipodi:rx="8.5714283"
       sodipodi:ry="8.5714283"
       d="m 158.57143,379.50504 a 8.5714283,8.5714283 0 1 1 -17.14286,0 8.5714283,8.5714283 0 1 1 17.14286,0 z"
       transform="matrix(0.44322299,0,0,0.44322299,106.97452,201.79878)" />
    <path
       sodipodi:type="arc"
       style="fill:#ffffff;fill-opacity:1;stroke:#000000;stroke-opacity:1"
       id="path2989-4-2"
       sodipodi:cx="150"
       sodipodi:cy="379.50504"
       sodipodi:rx="8.5714283"
       sodipodi:ry="8.5714283"
       d="m 158.57143,379.50504 a 8.5714283,8.5714283 0 1 1 -17.14286,0 8.5714283,8.5714283 0 1 1 17.14286,0 z"
       transform="matrix(0.44322299,0,0,0.44322299,83.933193,201.79878)" />
    <path
       sodipodi:type="arc"
       style="fill:#ffffff;fill-opacity:1;stroke:#000000;stroke-opacity:1"
       id="path2989-4-1"
       sodipodi:cx="150"
       sodipodi:cy="379.50504"
       sodipodi:rx="8.5714283"
       sodipodi:ry="8.5714283"
       d="m 158.57143,379.50504 a 8.5714283,8.5714283 0 1 1 -17.14286,0 8.5714283,8.5714283 0 1 1 17.14286,0 z"
       transform="matrix(0.44322299,0,0,0.44322299,60.891862,201.79878)" />
    <path
       sodipodi:type="arc"
       style="fill:#ffffff;fill-opacity:1;stroke:#000000;stroke-opacity:1"
       id="path2989-4-20"
       sodipodi:cx="150"
       sodipodi:cy="379.50504"
       sodipodi:rx="8.5714283"
       sodipodi:ry="8.5714283"
       d="m 158.57143,379.50504 a 8.5714283,8.5714283 0 1 1 -17.14286,0 8.5714283,8.5714283 0 1 1 17.14286,0 z"
       transform="matrix(0.44322299,0,0,0.44322299,37.850531,201.79878)" />
    <path
       sodipodi:type="arc"
       style="fill:#ffffff;fill-opacity:1;stroke:#000000;stroke-opacity:1"
       id="path2989-4-7"
       sodipodi:cx="150"
       sodipodi:cy="379.50504"
       sodipodi:rx="8.5714283"
       sodipodi:ry="8.5714283"
       d="m 158.57143,379.50504 a 8.5714283,8.5714283 0 1 1 -17.14286,0 8.5714283,8.5714283 0 1 1 17.14286,0 z"
       transform="matrix(0.44322299,0,0,0.44322299,14.8092,201.79878)" />
    <path
       sodipodi:type="arc"
       style="fill:#ffffff;fill-opacity:1;stroke:#000000;stroke-opacity:1"
       id="path2989-4-3"
       sodipodi:cx="150"
       sodipodi:cy="379.50504"
       sodipodi:rx="8.5714283"
       sodipodi:ry="8.5714283"
       d="m 158.57143,379.50504 a 8.5714283,8.5714283 0 1 1 -17.14286,0 8.5714283,8.5714283 0 1 1 17.14286,0 z"
       transform="matrix(0.44322299,0,0,0.44322299,-8.2321316,201.79878)" />
    <path
       sodipodi:type="arc"
       style="fill:#ffffff;fill-opacity:1;stroke:#000000;stroke-opacity:1"
       id="path2989-4-11"
       sodipodi:cx="150"
       sodipodi:cy="379.50504"
       sodipodi:rx="8.5714283"
       sodipodi:ry="8.5714283"
       d="m 158.57143,379.50504 a 8.5714283,8.5714283 0 1 1 -17.14286,0 8.5714283,8.5714283 0 1 1 17.14286,0 z"
       transform="matrix(0.44322299,0,0,0.44322299,153.05719,363.0881)" />
    <path
       sodipodi:type="arc"
       style="fill:#ffffff;fill-opacity:1;stroke:#000000;stroke-opacity:1"
       id="path2989-4-9-9"
       sodipodi:cx="150"
       sodipodi:cy="379.50504"
       sodipodi:rx="8.5714283"
       sodipodi:ry="8.5714283"
       d="m 158.57143,379.50504 a 8.5714283,8.5714283 0 1 1 -17.14286,0 8.5714283,8.5714283 0 1 1 17.14286,0 z"
       transform="matrix(0.44322299,0,0,0.44322299,-8.2321316,363.0881)" />
    <path
       sodipodi:type="arc"
       style="fill:#ffffff;fill-opacity:1;stroke:#000000;stroke-opacity:1"
       id="path2989-4-6-0"
       sodipodi:cx="150"
       sodipodi:cy="379.50504"
       sodipodi:rx="8.5714283"
       sodipodi:ry="8.5714283"
       d="m 158.57143,379.50504 a 8.5714283,8.5714283 0 1 1 -17.14286,0 8.5714283,8.5714283 0 1 1 17.14286,0 z"
       transform="matrix(0.44322299,0,0,0.44322299,153.05719,340.04677)" />
    <path
       sodipodi:type="arc"
       style="fill:#ffffff;fill-opacity:1;stroke:#000000;stroke-opacity:1"
       id="path2989-4-2-5"
       sodipodi:cx="150"
       sodipodi:cy="379.50504"
       sodipodi:rx="8.5714283"
       sodipodi:ry="8.5714283"
       d="m 158.57143,379.50504 a 8.5714283,8.5714283 0 1 1 -17.14286,0 8.5714283,8.5714283 0 1 1 17.14286,0 z"
       transform="matrix(0.44322299,0,0,0.44322299,130.01586,340.04677)" />
    <path
       sodipodi:type="arc"
       style="fill:#ffffff;fill-opacity:1;stroke:#000000;stroke-opacity:1"
       id="path2989-4-1-6"
       sodipodi:cx="150"
       sodipodi:cy="379.50504"
       sodipodi:rx="8.5714283"
       sodipodi:ry="8.5714283"
       d="m 158.57143,379.50504 a 8.5714283,8.5714283 0 1 1 -17.14286,0 8.5714283,8.5714283 0 1 1 17.14286,0 z"
       transform="matrix(0.44322299,0,0,0.44322299,106.97452,340.04677)" />
    <path
       sodipodi:type="arc"
       style="fill:#ffffff;fill-opacity:1;stroke:#000000;stroke-opacity:1"
       id="path2989-4-20-7"
       sodipodi:cx="150"
       sodipodi:cy="379.50504"
       sodipodi:rx="8.5714283"
       sodipodi:ry="8.5714283"
       d="m 158.57143,379.50504 a 8.5714283,8.5714283 0 1 1 -17.14286,0 8.5714283,8.5714283 0 1 1 17.14286,0 z"
       transform="matrix(0.44322299,0,0,0.44322299,83.933193,340.04677)" />
    <path
       sodipodi:type="arc"
       style="fill:#ffffff;fill-opacity:1;stroke:#000000;stroke-opacity:1"
       id="path2989-4-7-7"
       sodipodi:cx="150"
       sodipodi:cy="379.50504"
       sodipodi:rx="8.5714283"
       sodipodi:ry="8.5714283"
       d="m 158.57143,379.50504 a 8.5714283,8.5714283 0 1 1 -17.14286,0 8.5714283,8.5714283 0 1 1 17.14286,0 z"
       transform="matrix(0.44322299,0,0,0.44322299,60.891862,340.04677)" />
    <path
       sodipodi:type="arc"
       style="fill:#ffffff;fill-opacity:1;stroke:#000000;stroke-opacity:1"
       id="path2989-4-3-4"
       sodipodi:cx="150"
       sodipodi:cy="379.50504"
       sodipodi:rx="8.5714283"
       sodipodi:ry="8.5714283"
       d="m 158.57143,379.50504 a 8.5714283,8.5714283 0 1 1 -17.14286,0 8.5714283,8.5714283 0 1 1 17.14286,0 z"
       transform="matrix(0.44322299,0,0,0.44322299,37.850531,340.04677)" />
    <path
       sodipodi:type="arc"
       style="fill:#ffffff;fill-opacity:1;stroke:#000000;stroke-opacity:1"
       id="path2989-4-0"
       sodipodi:cx="150"
       sodipodi:cy="379.50504"
       sodipodi:rx="8.5714283"
       sodipodi:ry="8.5714283"
       d="m 158.57143,379.50504 a 8.5714283,8.5714283 0 1 1 -17.14286,0 8.5714283,8.5714283 0 1 1 17.14286,0 z"
       transform="matrix(0.44322299,0,0,0.44322299,130.01586,363.0881)" />
    <path
       sodipodi:type="arc"
       style="fill:#ffffff;fill-opacity:1;stroke:#000000;stroke-opacity:1"
       id="path2989-4-9-6"
       sodipodi:cx="150"
       sodipodi:cy="379.50504"
       sodipodi:rx="8.5714283"
       sodipodi:ry="8.5714283"
       d="m 158.57143,379.50504 a 8.5714283,8.5714283 0 1 1 -17.14286,0 8.5714283,8.5714283 0 1 1 17.14286,0 z"
       transform="matrix(0.44322299,0,0,0.44322299,14.8092,340.04677)" />
    <path
       sodipodi:type="arc"
       style="fill:#ffffff;fill-opacity:1;stroke:#000000;stroke-opacity:1"
       id="path2989-4-6-4"
       sodipodi:cx="150"
       sodipodi:cy="379.50504"
       sodipodi:rx="8.5714283"
       sodipodi:ry="8.5714283"
       d="m 158.57143,379.50504 a 8.5714283,8.5714283 0 1 1 -17.14286,0 8.5714283,8.5714283 0 1 1 17.14286,0 z"
       transform="matrix(0.44322299,0,0,0.44322299,-8.2321316,340.04677)" />
    <path
       sodipodi:type="arc"
       style="fill:#ffffff;fill-opacity:1;stroke:#000000;stroke-opacity:1"
       id="path2989-4-2-7"
       sodipodi:cx="150"
       sodipodi:cy="379.50504"
       sodipodi:rx="8.5714283"
       sodipodi:ry="8.5714283"
       d="m 158.57143,379.50504 a 8.5714283,8.5714283 0 1 1 -17.14286,0 8.5714283,8.5714283 0 1 1 17.14286,0 z"
       transform="matrix(0.44322299,0,0,0.44322299,153.05719,317.00544)" />
    <path
       sodipodi:type="arc"
       style="fill:#ffffff;fill-opacity:1;stroke:#000000;stroke-opacity:1"
       id="path2989-4-1-4"
       sodipodi:cx="150"
       sodipodi:cy="379.50504"
       sodipodi:rx="8.5714283"
       sodipodi:ry="8.5714283"
       d="m 158.57143,379.50504 a 8.5714283,8.5714283 0 1 1 -17.14286,0 8.5714283,8.5714283 0 1 1 17.14286,0 z"
       transform="matrix(0.44322299,0,0,0.44322299,130.01586,317.00544)" />
    <path
       sodipodi:type="arc"
       style="fill:#ffffff;fill-opacity:1;stroke:#000000;stroke-opacity:1"
       id="path2989-4-20-8"
       sodipodi:cx="150"
       sodipodi:cy="379.50504"
       sodipodi:rx="8.5714283"
       sodipodi:ry="8.5714283"
       d="m 158.57143,379.50504 a 8.5714283,8.5714283 0 1 1 -17.14286,0 8.5714283,8.5714283 0 1 1 17.14286,0 z"
       transform="matrix(0.44322299,0,0,0.44322299,106.97452,317.00544)" />
    <path
       sodipodi:type="arc"
       style="fill:#ffffff;fill-opacity:1;stroke:#000000;stroke-opacity:1"
       id="path2989-4-7-5"
       sodipodi:cx="150"
       sodipodi:cy="379.50504"
       sodipodi:rx="8.5714283"
       sodipodi:ry="8.5714283"
       d="m 158.57143,379.50504 a 8.5714283,8.5714283 0 1 1 -17.14286,0 8.5714283,8.5714283 0 1 1 17.14286,0 z"
       transform="matrix(0.44322299,0,0,0.44322299,83.933193,317.00544)" />
    <path
       sodipodi:type="arc"
       style="fill:#ffffff;fill-opacity:1;stroke:#000000;stroke-opacity:1"
       id="path2989-4-3-8"
       sodipodi:cx="150"
       sodipodi:cy="379.50504"
       sodipodi:rx="8.5714283"
       sodipodi:ry="8.5714283"
       d="m 158.57143,379.50504 a 8.5714283,8.5714283 0 1 1 -17.14286,0 8.5714283,8.5714283 0 1 1 17.14286,0 z"
       transform="matrix(0.44322299,0,0,0.44322299,60.891862,317.00544)" />
    <path
       sodipodi:type="arc"
       style="fill:#ffffff;fill-opacity:1;stroke:#000000;stroke-opacity:1"
       id="path2989-4-26"
       sodipodi:cx="150"
       sodipodi:cy="379.50504"
       sodipodi:rx="8.5714283"
       sodipodi:ry="8.5714283"
       d="m 158.57143,379.50504 a 8.5714283,8.5714283 0 1 1 -17.14286,0 8.5714283,8.5714283 0 1 1 17.14286,0 z"
       transform="matrix(0.44322299,0,0,0.44322299,106.97452,363.0881)" />
    <path
       sodipodi:type="arc"
       style="fill:#ffffff;fill-opacity:1;stroke:#000000;stroke-opacity:1"
       id="path2989-4-9-0"
       sodipodi:cx="150"
       sodipodi:cy="379.50504"
       sodipodi:rx="8.5714283"
       sodipodi:ry="8.5714283"
       d="m 158.57143,379.50504 a 8.5714283,8.5714283 0 1 1 -17.14286,0 8.5714283,8.5714283 0 1 1 17.14286,0 z"
       transform="matrix(0.44322299,0,0,0.44322299,37.850531,317.00544)" />
    <path
       sodipodi:type="arc"
       style="fill:#ffffff;fill-opacity:1;stroke:#000000;stroke-opacity:1"
       id="path2989-4-6-6"
       sodipodi:cx="150"
       sodipodi:cy="379.50504"
       sodipodi:rx="8.5714283"
       sodipodi:ry="8.5714283"
       d="m 158.57143,379.50504 a 8.5714283,8.5714283 0 1 1 -17.14286,0 8.5714283,8.5714283 0 1 1 17.14286,0 z"
       transform="matrix(0.44322299,0,0,0.44322299,14.8092,317.00544)" />
    <path
       sodipodi:type="arc"
       style="fill:#ffffff;fill-opacity:1;stroke:#000000;stroke-opacity:1"
       id="path2989-4-2-6"
       sodipodi:cx="150"
       sodipodi:cy="379.50504"
       sodipodi:rx="8.5714283"
       sodipodi:ry="8.5714283"
       d="m 158.57143,379.50504 a 8.5714283,8.5714283 0 1 1 -17.14286,0 8.5714283,8.5714283 0 1 1 17.14286,0 z"
       transform="matrix(0.44322299,0,0,0.44322299,-8.2321316,317.00544)" />
    <path
       sodipodi:type="arc"
       style="fill:#ffffff;fill-opacity:1;stroke:#000000;stroke-opacity:1"
       id="path2989-4-1-46"
       sodipodi:cx="150"
       sodipodi:cy="379.50504"
       sodipodi:rx="8.5714283"
       sodipodi:ry="8.5714283"
       d="m 158.57143,379.50504 a 8.5714283,8.5714283 0 1 1 -17.14286,0 8.5714283,8.5714283 0 1 1 17.14286,0 z"
       transform="matrix(0.44322299,0,0,0.44322299,153.05719,293.9641)" />
    <path
       sodipodi:type="arc"
       style="fill:#ffffff;fill-opacity:1;stroke:#000000;stroke-opacity:1"
       id="path2989-4-20-2"
       sodipodi:cx="150"
       sodipodi:cy="379.50504"
       sodipodi:rx="8.5714283"
       sodipodi:ry="8.5714283"
       d="m 158.57143,379.50504 a 8.5714283,8.5714283 0 1 1 -17.14286,0 8.5714283,8.5714283 0 1 1 17.14286,0 z"
       transform="matrix(0.44322299,0,0,0.44322299,130.01586,293.9641)" />
    <path
       sodipodi:type="arc"
       style="fill:#ffffff;fill-opacity:1;stroke:#000000;stroke-opacity:1"
       id="path2989-4-7-8"
       sodipodi:cx="150"
       sodipodi:cy="379.50504"
       sodipodi:rx="8.5714283"
       sodipodi:ry="8.5714283"
       d="m 158.57143,379.50504 a 8.5714283,8.5714283 0 1 1 -17.14286,0 8.5714283,8.5714283 0 1 1 17.14286,0 z"
       transform="matrix(0.44322299,0,0,0.44322299,106.97452,293.9641)" />
    <path
       sodipodi:type="arc"
       style="fill:#ffffff;fill-opacity:1;stroke:#000000;stroke-opacity:1"
       id="path2989-4-3-9"
       sodipodi:cx="150"
       sodipodi:cy="379.50504"
       sodipodi:rx="8.5714283"
       sodipodi:ry="8.5714283"
       d="m 158.57143,379.50504 a 8.5714283,8.5714283 0 1 1 -17.14286,0 8.5714283,8.5714283 0 1 1 17.14286,0 z"
       transform="matrix(0.44322299,0,0,0.44322299,83.933193,293.9641)" />
    <path
       sodipodi:type="arc"
       style="fill:#ffffff;fill-opacity:1;stroke:#000000;stroke-opacity:1"
       id="path2989-4-60"
       sodipodi:cx="150"
       sodipodi:cy="379.50504"
       sodipodi:rx="8.5714283"
       sodipodi:ry="8.5714283"
       d="m 158.57143,379.50504 a 8.5714283,8.5714283 0 1 1 -17.14286,0 8.5714283,8.5714283 0 1 1 17.14286,0 z"
       transform="matrix(0.44322299,0,0,0.44322299,83.933193,363.0881)" />
    <path
       sodipodi:type="arc"
       style="fill:#ffffff;fill-opacity:1;stroke:#000000;stroke-opacity:1"
       id="path2989-4-9-7"
       sodipodi:cx="150"
       sodipodi:cy="379.50504"
       sodipodi:rx="8.5714283"
       sodipodi:ry="8.5714283"
       d="m 158.57143,379.50504 a 8.5714283,8.5714283 0 1 1 -17.14286,0 8.5714283,8.5714283 0 1 1 17.14286,0 z"
       transform="matrix(0.44322299,0,0,0.44322299,60.891862,293.9641)" />
    <path
       sodipodi:type="arc"
       style="fill:#ffffff;fill-opacity:1;stroke:#000000;stroke-opacity:1"
       id="path2989-4-6-01"
       sodipodi:cx="150"
       sodipodi:cy="379.50504"
       sodipodi:rx="8.5714283"
       sodipodi:ry="8.5714283"
       d="m 158.57143,379.50504 a 8.5714283,8.5714283 0 1 1 -17.14286,0 8.5714283,8.5714283 0 1 1 17.14286,0 z"
       transform="matrix(0.44322299,0,0,0.44322299,37.850531,293.9641)" />
    <path
       sodipodi:type="arc"
       style="fill:#ffffff;fill-opacity:1;stroke:#000000;stroke-opacity:1"
       id="path2989-4-2-0"
       sodipodi:cx="150"
       sodipodi:cy="379.50504"
       sodipodi:rx="8.5714283"
       sodipodi:ry="8.5714283"
       d="m 158.57143,379.50504 a 8.5714283,8.5714283 0 1 1 -17.14286,0 8.5714283,8.5714283 0 1 1 17.14286,0 z"
       transform="matrix(0.44322299,0,0,0.44322299,14.8092,293.9641)" />
    <path
       sodipodi:type="arc"
       style="fill:#ffffff;fill-opacity:1;stroke:#000000;stroke-opacity:1"
       id="path2989-4-1-1"
       sodipodi:cx="150"
       sodipodi:cy="379.50504"
       sodipodi:rx="8.5714283"
       sodipodi:ry="8.5714283"
       d="m 158.57143,379.50504 a 8.5714283,8.5714283 0 1 1 -17.14286,0 8.5714283,8.5714283 0 1 1 17.14286,0 z"
       transform="matrix(0.44322299,0,0,0.44322299,-8.2321316,293.9641)" />
    <path
       sodipodi:type="arc"
       style="fill:#ffffff;fill-opacity:1;stroke:#000000;stroke-opacity:1"
       id="path2989-4-20-3"
       sodipodi:cx="150"
       sodipodi:cy="379.50504"
       sodipodi:rx="8.5714283"
       sodipodi:ry="8.5714283"
       d="m 158.57143,379.50504 a 8.5714283,8.5714283 0 1 1 -17.14286,0 8.5714283,8.5714283 0 1 1 17.14286,0 z"
       transform="matrix(0.44322299,0,0,0.44322299,153.05719,270.92277)" />
    <path
       sodipodi:type="arc"
       style="fill:#ffffff;fill-opacity:1;stroke:#000000;stroke-opacity:1"
       id="path2989-4-7-77"
       sodipodi:cx="150"
       sodipodi:cy="379.50504"
       sodipodi:rx="8.5714283"
       sodipodi:ry="8.5714283"
       d="m 158.57143,379.50504 a 8.5714283,8.5714283 0 1 1 -17.14286,0 8.5714283,8.5714283 0 1 1 17.14286,0 z"
       transform="matrix(0.44322299,0,0,0.44322299,130.01586,270.92277)" />
    <path
       sodipodi:type="arc"
       style="fill:#ffffff;fill-opacity:1;stroke:#000000;stroke-opacity:1"
       id="path2989-4-3-2"
       sodipodi:cx="150"
       sodipodi:cy="379.50504"
       sodipodi:rx="8.5714283"
       sodipodi:ry="8.5714283"
       d="m 158.57143,379.50504 a 8.5714283,8.5714283 0 1 1 -17.14286,0 8.5714283,8.5714283 0 1 1 17.14286,0 z"
       transform="matrix(0.44322299,0,0,0.44322299,106.97452,270.92277)" />
    <path
       sodipodi:type="arc"
       style="fill:#ffffff;fill-opacity:1;stroke:#000000;stroke-opacity:1"
       id="path2989-4-64"
       sodipodi:cx="150"
       sodipodi:cy="379.50504"
       sodipodi:rx="8.5714283"
       sodipodi:ry="8.5714283"
       d="m 158.57143,379.50504 a 8.5714283,8.5714283 0 1 1 -17.14286,0 8.5714283,8.5714283 0 1 1 17.14286,0 z"
       transform="matrix(0.44322299,0,0,0.44322299,60.891862,363.0881)" />
    <path
       sodipodi:type="arc"
       style="fill:#ffffff;fill-opacity:1;stroke:#000000;stroke-opacity:1"
       id="path2989-4-9-5"
       sodipodi:cx="150"
       sodipodi:cy="379.50504"
       sodipodi:rx="8.5714283"
       sodipodi:ry="8.5714283"
       d="m 158.57143,379.50504 a 8.5714283,8.5714283 0 1 1 -17.14286,0 8.5714283,8.5714283 0 1 1 17.14286,0 z"
       transform="matrix(0.44322299,0,0,0.44322299,83.933193,270.92277)" />
    <path
       sodipodi:type="arc"
       style="fill:#ffffff;fill-opacity:1;stroke:#000000;stroke-opacity:1"
       id="path2989-4-6-2"
       sodipodi:cx="150"
       sodipodi:cy="379.50504"
       sodipodi:rx="8.5714283"
       sodipodi:ry="8.5714283"
       d="m 158.57143,379.50504 a 8.5714283,8.5714283 0 1 1 -17.14286,0 8.5714283,8.5714283 0 1 1 17.14286,0 z"
       transform="matrix(0.44322299,0,0,0.44322299,60.891862,270.92277)" />
    <path
       sodipodi:type="arc"
       style="fill:#ffffff;fill-opacity:1;stroke:#000000;stroke-opacity:1"
       id="path2989-4-2-02"
       sodipodi:cx="150"
       sodipodi:cy="379.50504"
       sodipodi:rx="8.5714283"
       sodipodi:ry="8.5714283"
       d="m 158.57143,379.50504 a 8.5714283,8.5714283 0 1 1 -17.14286,0 8.5714283,8.5714283 0 1 1 17.14286,0 z"
       transform="matrix(0.44322299,0,0,0.44322299,37.850531,270.92277)" />
    <path
       sodipodi:type="arc"
       style="fill:#ffffff;fill-opacity:1;stroke:#000000;stroke-opacity:1"
       id="path2989-4-1-9"
       sodipodi:cx="150"
       sodipodi:cy="379.50504"
       sodipodi:rx="8.5714283"
       sodipodi:ry="8.5714283"
       d="m 158.57143,379.50504 a 8.5714283,8.5714283 0 1 1 -17.14286,0 8.5714283,8.5714283 0 1 1 17.14286,0 z"
       transform="matrix(0.44322299,0,0,0.44322299,14.8092,270.92277)" />
    <path
       sodipodi:type="arc"
       style="fill:#ffffff;fill-opacity:1;stroke:#000000;stroke-opacity:1"
       id="path2989-4-20-0"
       sodipodi:cx="150"
       sodipodi:cy="379.50504"
       sodipodi:rx="8.5714283"
       sodipodi:ry="8.5714283"
       d="m 158.57143,379.50504 a 8.5714283,8.5714283 0 1 1 -17.14286,0 8.5714283,8.5714283 0 1 1 17.14286,0 z"
       transform="matrix(0.44322299,0,0,0.44322299,-8.2321316,270.92277)" />
    <path
       sodipodi:type="arc"
       style="fill:#ffffff;fill-opacity:1;stroke:#000000;stroke-opacity:1"
       id="path2989-4-7-9"
       sodipodi:cx="150"
       sodipodi:cy="379.50504"
       sodipodi:rx="8.5714283"
       sodipodi:ry="8.5714283"
       d="m 158.57143,379.50504 a 8.5714283,8.5714283 0 1 1 -17.14286,0 8.5714283,8.5714283 0 1 1 17.14286,0 z"
       transform="matrix(0.44322299,0,0,0.44322299,153.05719,247.88144)" />
    <path
       sodipodi:type="arc"
       style="fill:#ffffff;fill-opacity:1;stroke:#000000;stroke-opacity:1"
       id="path2989-4-3-94"
       sodipodi:cx="150"
       sodipodi:cy="379.50504"
       sodipodi:rx="8.5714283"
       sodipodi:ry="8.5714283"
       d="m 158.57143,379.50504 a 8.5714283,8.5714283 0 1 1 -17.14286,0 8.5714283,8.5714283 0 1 1 17.14286,0 z"
       transform="matrix(0.44322299,0,0,0.44322299,130.01586,247.88144)" />
    <path
       sodipodi:type="arc"
       style="fill:#ffffff;fill-opacity:1;stroke:#000000;stroke-opacity:1"
       id="path2989-4-5"
       sodipodi:cx="150"
       sodipodi:cy="379.50504"
       sodipodi:rx="8.5714283"
       sodipodi:ry="8.5714283"
       d="m 158.57143,379.50504 a 8.5714283,8.5714283 0 1 1 -17.14286,0 8.5714283,8.5714283 0 1 1 17.14286,0 z"
       transform="matrix(0.44322299,0,0,0.44322299,37.850531,363.0881)" />
    <path
       sodipodi:type="arc"
       style="fill:#ffffff;fill-opacity:1;stroke:#000000;stroke-opacity:1"
       id="path2989-4-9-1"
       sodipodi:cx="150"
       sodipodi:cy="379.50504"
       sodipodi:rx="8.5714283"
       sodipodi:ry="8.5714283"
       d="m 158.57143,379.50504 a 8.5714283,8.5714283 0 1 1 -17.14286,0 8.5714283,8.5714283 0 1 1 17.14286,0 z"
       transform="matrix(0.44322299,0,0,0.44322299,106.97452,247.88144)" />
    <path
       sodipodi:type="arc"
       style="fill:#ffffff;fill-opacity:1;stroke:#000000;stroke-opacity:1"
       id="path2989-4-6-03"
       sodipodi:cx="150"
       sodipodi:cy="379.50504"
       sodipodi:rx="8.5714283"
       sodipodi:ry="8.5714283"
       d="m 158.57143,379.50504 a 8.5714283,8.5714283 0 1 1 -17.14286,0 8.5714283,8.5714283 0 1 1 17.14286,0 z"
       transform="matrix(0.44322299,0,0,0.44322299,83.933193,247.88144)" />
    <path
       sodipodi:type="arc"
       style="fill:#ffffff;fill-opacity:1;stroke:#000000;stroke-opacity:1"
       id="path2989-4-2-78"
       sodipodi:cx="150"
       sodipodi:cy="379.50504"
       sodipodi:rx="8.5714283"
       sodipodi:ry="8.5714283"
       d="m 158.57143,379.50504 a 8.5714283,8.5714283 0 1 1 -17.14286,0 8.5714283,8.5714283 0 1 1 17.14286,0 z"
       transform="matrix(0.44322299,0,0,0.44322299,60.891862,247.88144)" />
    <path
       sodipodi:type="arc"
       style="fill:#ffffff;fill-opacity:1;stroke:#000000;stroke-opacity:1"
       id="path2989-4-1-8"
       sodipodi:cx="150"
       sodipodi:cy="379.50504"
       sodipodi:rx="8.5714283"
       sodipodi:ry="8.5714283"
       d="m 158.57143,379.50504 a 8.5714283,8.5714283 0 1 1 -17.14286,0 8.5714283,8.5714283 0 1 1 17.14286,0 z"
       transform="matrix(0.44322299,0,0,0.44322299,37.850531,247.88144)" />
    <path
       sodipodi:type="arc"
       style="fill:#ffffff;fill-opacity:1;stroke:#000000;stroke-opacity:1"
       id="path2989-4-20-6"
       sodipodi:cx="150"
       sodipodi:cy="379.50504"
       sodipodi:rx="8.5714283"
       sodipodi:ry="8.5714283"
       d="m 158.57143,379.50504 a 8.5714283,8.5714283 0 1 1 -17.14286,0 8.5714283,8.5714283 0 1 1 17.14286,0 z"
       transform="matrix(0.44322299,0,0,0.44322299,14.8092,247.88144)" />
    <path
       sodipodi:type="arc"
       style="fill:#ffffff;fill-opacity:1;stroke:#000000;stroke-opacity:1"
       id="path2989-4-7-0"
       sodipodi:cx="150"
       sodipodi:cy="379.50504"
       sodipodi:rx="8.5714283"
       sodipodi:ry="8.5714283"
       d="m 158.57143,379.50504 a 8.5714283,8.5714283 0 1 1 -17.14286,0 8.5714283,8.5714283 0 1 1 17.14286,0 z"
       transform="matrix(0.44322299,0,0,0.44322299,-8.2321316,247.88144)" />
    <path
       sodipodi:type="arc"
       style="fill:#ffffff;fill-opacity:1;stroke:#000000;stroke-opacity:1"
       id="path2989-4-3-46"
       sodipodi:cx="150"
       sodipodi:cy="379.50504"
       sodipodi:rx="8.5714283"
       sodipodi:ry="8.5714283"
       d="m 158.57143,379.50504 a 8.5714283,8.5714283 0 1 1 -17.14286,0 8.5714283,8.5714283 0 1 1 17.14286,0 z"
       transform="matrix(0.44322299,0,0,0.44322299,153.05719,224.84011)" />
    <path
       sodipodi:type="arc"
       style="fill:#ffffff;fill-opacity:1;stroke:#000000;stroke-opacity:1"
       id="path2989-4-76"
       sodipodi:cx="150"
       sodipodi:cy="379.50504"
       sodipodi:rx="8.5714283"
       sodipodi:ry="8.5714283"
       d="m 158.57143,379.50504 a 8.5714283,8.5714283 0 1 1 -17.14286,0 8.5714283,8.5714283 0 1 1 17.14286,0 z"
       transform="matrix(0.44322299,0,0,0.44322299,14.8092,363.0881)" />
    <path
       sodipodi:type="arc"
       style="fill:#ffffff;fill-opacity:1;stroke:#000000;stroke-opacity:1"
       id="path2989-4-9-09"
       sodipodi:cx="150"
       sodipodi:cy="379.50504"
       sodipodi:rx="8.5714283"
       sodipodi:ry="8.5714283"
       d="m 158.57143,379.50504 a 8.5714283,8.5714283 0 1 1 -17.14286,0 8.5714283,8.5714283 0 1 1 17.14286,0 z"
       transform="matrix(0.44322299,0,0,0.44322299,130.01586,224.84011)" />
    <path
       sodipodi:type="arc"
       style="fill:#ffffff;fill-opacity:1;stroke:#000000;stroke-opacity:1"
       id="path2989-4-6-7"
       sodipodi:cx="150"
       sodipodi:cy="379.50504"
       sodipodi:rx="8.5714283"
       sodipodi:ry="8.5714283"
       d="m 158.57143,379.50504 a 8.5714283,8.5714283 0 1 1 -17.14286,0 8.5714283,8.5714283 0 1 1 17.14286,0 z"
       transform="matrix(0.44322299,0,0,0.44322299,106.97452,224.84011)" />
    <path
       sodipodi:type="arc"
       style="fill:#ffffff;fill-opacity:1;stroke:#000000;stroke-opacity:1"
       id="path2989-4-2-59"
       sodipodi:cx="150"
       sodipodi:cy="379.50504"
       sodipodi:rx="8.5714283"
       sodipodi:ry="8.5714283"
       d="m 158.57143,379.50504 a 8.5714283,8.5714283 0 1 1 -17.14286,0 8.5714283,8.5714283 0 1 1 17.14286,0 z"
       transform="matrix(0.44322299,0,0,0.44322299,83.933193,224.84011)" />
    <path
       sodipodi:type="arc"
       style="fill:#ffffff;fill-opacity:1;stroke:#000000;stroke-opacity:1"
       id="path2989-4-1-7"
       sodipodi:cx="150"
       sodipodi:cy="379.50504"
       sodipodi:rx="8.5714283"
       sodipodi:ry="8.5714283"
       d="m 158.57143,379.50504 a 8.5714283,8.5714283 0 1 1 -17.14286,0 8.5714283,8.5714283 0 1 1 17.14286,0 z"
       transform="matrix(0.44322299,0,0,0.44322299,60.891862,224.84011)" />
    <path
       sodipodi:type="arc"
       style="fill:#ffffff;fill-opacity:1;stroke:#000000;stroke-opacity:1"
       id="path2989-4-20-85"
       sodipodi:cx="150"
       sodipodi:cy="379.50504"
       sodipodi:rx="8.5714283"
       sodipodi:ry="8.5714283"
       d="m 158.57143,379.50504 a 8.5714283,8.5714283 0 1 1 -17.14286,0 8.5714283,8.5714283 0 1 1 17.14286,0 z"
       transform="matrix(0.44322299,0,0,0.44322299,37.850531,224.84011)" />
    <path
       sodipodi:type="arc"
       style="fill:#ffffff;fill-opacity:1;stroke:#000000;stroke-opacity:1"
       id="path2989-4-7-3"
       sodipodi:cx="150"
       sodipodi:cy="379.50504"
       sodipodi:rx="8.5714283"
       sodipodi:ry="8.5714283"
       d="m 158.57143,379.50504 a 8.5714283,8.5714283 0 1 1 -17.14286,0 8.5714283,8.5714283 0 1 1 17.14286,0 z"
       transform="matrix(0.44322299,0,0,0.44322299,14.8092,224.84011)" />
    <path
       sodipodi:type="arc"
       style="fill:#ffffff;fill-opacity:1;stroke:#000000;stroke-opacity:1"
       id="path2989-4-3-3"
       sodipodi:cx="150"
       sodipodi:cy="379.50504"
       sodipodi:rx="8.5714283"
       sodipodi:ry="8.5714283"
       d="m 158.57143,379.50504 a 8.5714283,8.5714283 0 1 1 -17.14286,0 8.5714283,8.5714283 0 1 1 17.14286,0 z"
       transform="matrix(0.44322299,0,0,0.44322299,-8.2321316,224.84011)" />
    <path
       sodipodi:type="arc"
       style="fill:#ffffff;fill-opacity:1;stroke:#000000;stroke-opacity:1"
       id="path2989-4-11-3"
       sodipodi:cx="150"
       sodipodi:cy="379.50504"
       sodipodi:rx="8.5714283"
       sodipodi:ry="8.5714283"
       d="m 158.57143,379.50504 a 8.5714283,8.5714283 0 1 1 -17.14286,0 8.5714283,8.5714283 0 1 1 17.14286,0 z"
       transform="matrix(0.44322299,0,0,0.44322299,153.05719,386.12943)" />
    <path
       sodipodi:type="arc"
       style="fill:#ffffff;fill-opacity:1;stroke:#000000;stroke-opacity:1"
       id="path2989-4-9-9-0"
       sodipodi:cx="150"
       sodipodi:cy="379.50504"
       sodipodi:rx="8.5714283"
       sodipodi:ry="8.5714283"
       d="m 158.57143,379.50504 a 8.5714283,8.5714283 0 1 1 -17.14286,0 8.5714283,8.5714283 0 1 1 17.14286,0 z"
       transform="matrix(0.44322299,0,0,0.44322299,-8.2321316,386.12943)" />
    <path
       sodipodi:type="arc"
       style="fill:#ffffff;fill-opacity:1;stroke:#000000;stroke-opacity:1"
       id="path2989-4-0-2"
       sodipodi:cx="150"
       sodipodi:cy="379.50504"
       sodipodi:rx="8.5714283"
       sodipodi:ry="8.5714283"
       d="m 158.57143,379.50504 a 8.5714283,8.5714283 0 1 1 -17.14286,0 8.5714283,8.5714283 0 1 1 17.14286,0 z"
       transform="matrix(0.44322299,0,0,0.44322299,130.01586,386.12943)" />
    <path
       sodipodi:type="arc"
       style="fill:#ffffff;fill-opacity:1;stroke:#000000;stroke-opacity:1"
       id="path2989-4-26-1"
       sodipodi:cx="150"
       sodipodi:cy="379.50504"
       sodipodi:rx="8.5714283"
       sodipodi:ry="8.5714283"
       d="m 158.57143,379.50504 a 8.5714283,8.5714283 0 1 1 -17.14286,0 8.5714283,8.5714283 0 1 1 17.14286,0 z"
       transform="matrix(0.44322299,0,0,0.44322299,106.97452,386.12943)" />
    <path
       sodipodi:type="arc"
       style="fill:#ffffff;fill-opacity:1;stroke:#000000;stroke-opacity:1"
       id="path2989-4-60-5"
       sodipodi:cx="150"
       sodipodi:cy="379.50504"
       sodipodi:rx="8.5714283"
       sodipodi:ry="8.5714283"
       d="m 158.57143,379.50504 a 8.5714283,8.5714283 0 1 1 -17.14286,0 8.5714283,8.5714283 0 1 1 17.14286,0 z"
       transform="matrix(0.44322299,0,0,0.44322299,83.933193,386.12943)" />
    <path
       sodipodi:type="arc"
       style="fill:#ffffff;fill-opacity:1;stroke:#000000;stroke-opacity:1"
       id="path2989-4-64-6"
       sodipodi:cx="150"
       sodipodi:cy="379.50504"
       sodipodi:rx="8.5714283"
       sodipodi:ry="8.5714283"
       d="m 158.57143,379.50504 a 8.5714283,8.5714283 0 1 1 -17.14286,0 8.5714283,8.5714283 0 1 1 17.14286,0 z"
       transform="matrix(0.44322299,0,0,0.44322299,60.891862,386.12943)" />
    <path
       sodipodi:type="arc"
       style="fill:#ffffff;fill-opacity:1;stroke:#000000;stroke-opacity:1"
       id="path2989-4-5-5"
       sodipodi:cx="150"
       sodipodi:cy="379.50504"
       sodipodi:rx="8.5714283"
       sodipodi:ry="8.5714283"
       d="m 158.57143,379.50504 a 8.5714283,8.5714283 0 1 1 -17.14286,0 8.5714283,8.5714283 0 1 1 17.14286,0 z"
       transform="matrix(0.44322299,0,0,0.44322299,37.850531,386.12943)" />
    <path
       sodipodi:type="arc"
       style="fill:#ffffff;fill-opacity:1;stroke:#000000;stroke-opacity:1"
       id="path2989-4-76-0"
       sodipodi:cx="150"
       sodipodi:cy="379.50504"
       sodipodi:rx="8.5714283"
       sodipodi:ry="8.5714283"
       d="m 158.57143,379.50504 a 8.5714283,8.5714283 0 1 1 -17.14286,0 8.5714283,8.5714283 0 1 1 17.14286,0 z"
       transform="matrix(0.44322299,0,0,0.44322299,14.8092,386.12943)" />
    <path
       sodipodi:type="arc"
       style="fill:#ffffff;fill-opacity:1;stroke:#000000;stroke-opacity:1"
       id="path2989-4-27"
       sodipodi:cx="150"
       sodipodi:cy="379.50504"
       sodipodi:rx="8.5714283"
       sodipodi:ry="8.5714283"
       d="m 158.57143,379.50504 a 8.5714283,8.5714283 0 1 1 -17.14286,0 8.5714283,8.5714283 0 1 1 17.14286,0 z"
       transform="matrix(0.44322299,0,0,0.44322299,176.09852,201.79878)" />
    <path
       sodipodi:type="arc"
       style="fill:#ffffff;fill-opacity:1;stroke:#000000;stroke-opacity:1"
       id="path2989-4-11-2"
       sodipodi:cx="150"
       sodipodi:cy="379.50504"
       sodipodi:rx="8.5714283"
       sodipodi:ry="8.5714283"
       d="m 158.57143,379.50504 a 8.5714283,8.5714283 0 1 1 -17.14286,0 8.5714283,8.5714283 0 1 1 17.14286,0 z"
       transform="matrix(0.44322299,0,0,0.44322299,176.09852,363.0881)" />
    <path
       sodipodi:type="arc"
       style="fill:#ffffff;fill-opacity:1;stroke:#000000;stroke-opacity:1"
       id="path2989-4-6-0-1"
       sodipodi:cx="150"
       sodipodi:cy="379.50504"
       sodipodi:rx="8.5714283"
       sodipodi:ry="8.5714283"
       d="m 158.57143,379.50504 a 8.5714283,8.5714283 0 1 1 -17.14286,0 8.5714283,8.5714283 0 1 1 17.14286,0 z"
       transform="matrix(0.44322299,0,0,0.44322299,176.09852,340.04677)" />
    <path
       sodipodi:type="arc"
       style="fill:#ffffff;fill-opacity:1;stroke:#000000;stroke-opacity:1"
       id="path2989-4-2-7-3"
       sodipodi:cx="150"
       sodipodi:cy="379.50504"
       sodipodi:rx="8.5714283"
       sodipodi:ry="8.5714283"
       d="m 158.57143,379.50504 a 8.5714283,8.5714283 0 1 1 -17.14286,0 8.5714283,8.5714283 0 1 1 17.14286,0 z"
       transform="matrix(0.44322299,0,0,0.44322299,176.09852,317.00544)" />
    <path
       sodipodi:type="arc"
       style="fill:#ffffff;fill-opacity:1;stroke:#000000;stroke-opacity:1"
       id="path2989-4-1-46-4"
       sodipodi:cx="150"
       sodipodi:cy="379.50504"
       sodipodi:rx="8.5714283"
       sodipodi:ry="8.5714283"
       d="m 158.57143,379.50504 a 8.5714283,8.5714283 0 1 1 -17.14286,0 8.5714283,8.5714283 0 1 1 17.14286,0 z"
       transform="matrix(0.44322299,0,0,0.44322299,176.09852,293.9641)" />
    <path
       sodipodi:type="arc"
       style="fill:#ffffff;fill-opacity:1;stroke:#000000;stroke-opacity:1"
       id="path2989-4-20-3-9"
       sodipodi:cx="150"
       sodipodi:cy="379.50504"
       sodipodi:rx="8.5714283"
       sodipodi:ry="8.5714283"
       d="m 158.57143,379.50504 a 8.5714283,8.5714283 0 1 1 -17.14286,0 8.5714283,8.5714283 0 1 1 17.14286,0 z"
       transform="matrix(0.44322299,0,0,0.44322299,176.09852,270.92277)" />
    <path
       sodipodi:type="arc"
       style="fill:#ffffff;fill-opacity:1;stroke:#000000;stroke-opacity:1"
       id="path2989-4-7-9-4"
       sodipodi:cx="150"
       sodipodi:cy="379.50504"
       sodipodi:rx="8.5714283"
       sodipodi:ry="8.5714283"
       d="m 158.57143,379.50504 a 8.5714283,8.5714283 0 1 1 -17.14286,0 8.5714283,8.5714283 0 1 1 17.14286,0 z"
       transform="matrix(0.44322299,0,0,0.44322299,176.09852,247.88144)" />
    <path
       sodipodi:type="arc"
       style="fill:#ffffff;fill-opacity:1;stroke:#000000;stroke-opacity:1"
       id="path2989-4-3-46-1"
       sodipodi:cx="150"
       sodipodi:cy="379.50504"
       sodipodi:rx="8.5714283"
       sodipodi:ry="8.5714283"
       d="m 158.57143,379.50504 a 8.5714283,8.5714283 0 1 1 -17.14286,0 8.5714283,8.5714283 0 1 1 17.14286,0 z"
       transform="matrix(0.44322299,0,0,0.44322299,176.09852,224.84011)" />
    <path
       sodipodi:type="arc"
       style="fill:#ffffff;fill-opacity:1;stroke:#000000;stroke-opacity:1"
       id="path2989-4-11-3-9"
       sodipodi:cx="150"
       sodipodi:cy="379.50504"
       sodipodi:rx="8.5714283"
       sodipodi:ry="8.5714283"
       d="m 158.57143,379.50504 a 8.5714283,8.5714283 0 1 1 -17.14286,0 8.5714283,8.5714283 0 1 1 17.14286,0 z"
       transform="matrix(0.44322299,0,0,0.44322299,176.09852,386.12943)" />
  </g>
  <g
     inkscape:groupmode="layer"
     id="layer2"
     inkscape:label="coarse">
    <path
       sodipodi:type="arc"
       style="fill:#000000;stroke:#ffffff;stroke-opacity:1"
       id="path2989"
       sodipodi:cx="150"
       sodipodi:cy="379.50504"
       sodipodi:rx="8.5714283"
       sodipodi:ry="8.5714283"
       d="m 158.57143,379.50504 a 8.5714283,8.5714283 0 1 1 -17.14286,0 8.5714283,8.5714283 0 1 1 17.14286,0 z"
       transform="translate(-91.891685,-11.071424)" />
    <path
       sodipodi:type="arc"
       style="fill:#000000;stroke:#ffffff;stroke-opacity:1"
       id="path2989-3"
       sodipodi:cx="150"
       sodipodi:cy="379.50504"
       sodipodi:rx="8.5714283"
       sodipodi:ry="8.5714283"
       d="m 158.57143,379.50504 a 8.5714283,8.5714283 0 1 1 -17.14286,0 8.5714283,8.5714283 0 1 1 17.14286,0 z"
       transform="translate(-0.60597151,-11.071424)" />
    <path
       sodipodi:type="arc"
       style="fill:#000000;stroke:#ffffff;stroke-opacity:1"
       id="path2989-5"
       sodipodi:cx="150"
       sodipodi:cy="379.50504"
       sodipodi:rx="8.5714283"
       sodipodi:ry="8.5714283"
       d="m 158.57143,379.50504 a 8.5714283,8.5714283 0 1 1 -17.14286,0 8.5714283,8.5714283 0 1 1 17.14286,0 z"
       transform="translate(-91.891685,80.214289)" />
    <path
       sodipodi:type="arc"
       style="fill:#000000;stroke:#ffffff;stroke-opacity:1"
       id="path2989-0"
       sodipodi:cx="150"
       sodipodi:cy="379.50504"
       sodipodi:rx="8.5714283"
       sodipodi:ry="8.5714283"
       d="m 158.57143,379.50504 a 8.5714283,8.5714283 0 1 1 -17.14286,0 8.5714283,8.5714283 0 1 1 17.14286,0 z"
       transform="translate(-0.60597151,80.214289)" />
    <path
       sodipodi:type="arc"
       style="fill:#000000;stroke:#ffffff;stroke-opacity:1"
       id="path2989-49"
       sodipodi:cx="150"
       sodipodi:cy="379.50504"
       sodipodi:rx="8.5714283"
       sodipodi:ry="8.5714283"
       d="m 158.57143,379.50504 a 8.5714283,8.5714283 0 1 1 -17.14286,0 8.5714283,8.5714283 0 1 1 17.14286,0 z"
       transform="translate(-0.60597151,171.5)" />
    <path
       sodipodi:type="arc"
       style="fill:#000000;stroke:#ffffff;stroke-opacity:1"
       id="path2989-9"
       sodipodi:cx="150"
       sodipodi:cy="379.50504"
       sodipodi:rx="8.5714283"
       sodipodi:ry="8.5714283"
       d="m 158.57143,379.50504 a 8.5714283,8.5714283 0 1 1 -17.14286,0 8.5714283,8.5714283 0 1 1 17.14286,0 z"
       transform="translate(90.679741,-11.071424)" />
    <path
       sodipodi:type="arc"
       style="fill:#000000;stroke:#ffffff;stroke-opacity:1"
       id="path2989-0-8"
       sodipodi:cx="150"
       sodipodi:cy="379.50504"
       sodipodi:rx="8.5714283"
       sodipodi:ry="8.5714283"
       d="m 158.57143,379.50504 a 8.5714283,8.5714283 0 1 1 -17.14286,0 8.5714283,8.5714283 0 1 1 17.14286,0 z"
       transform="translate(90.679741,80.214289)" />
    <path
       sodipodi:type="arc"
       style="fill:#000000;stroke:#ffffff;stroke-opacity:1"
       id="path2989-0-5"
       sodipodi:cx="150"
       sodipodi:cy="379.50504"
       sodipodi:rx="8.5714283"
       sodipodi:ry="8.5714283"
       d="m 158.57143,379.50504 a 8.5714283,8.5714283 0 1 1 -17.14286,0 8.5714283,8.5714283 0 1 1 17.14286,0 z"
       transform="translate(90.679741,171.5)" />
    <path
       sodipodi:type="arc"
       style="fill:#000000;stroke:#ffffff;stroke-opacity:1"
       id="path2989-0-5-1"
       sodipodi:cx="150"
       sodipodi:cy="379.50504"
       sodipodi:rx="8.5714283"
       sodipodi:ry="8.5714283"
       d="m 158.57143,379.50504 a 8.5714283,8.5714283 0 1 1 -17.14286,0 8.5714283,8.5714283 0 1 1 17.14286,0 z"
       transform="translate(-91.891685,171.5)" />
    <path
       sodipodi:type="arc"
       style="fill:#000000;stroke:#ffffff;stroke-opacity:1"
       id="path2989-8"
       sodipodi:cx="150"
       sodipodi:cy="379.50504"
       sodipodi:rx="8.5714283"
       sodipodi:ry="8.5714283"
       d="m 158.57143,379.50504 a 8.5714283,8.5714283 0 1 1 -17.14286,0 8.5714283,8.5714283 0 1 1 17.14286,0 z"
       transform="translate(-91.891685,34.571433)" />
    <path
       sodipodi:type="arc"
       style="fill:#000000;stroke:#ffffff;stroke-opacity:1"
       id="path2989-3-7"
       sodipodi:cx="150"
       sodipodi:cy="379.50504"
       sodipodi:rx="8.5714283"
       sodipodi:ry="8.5714283"
       d="m 158.57143,379.50504 a 8.5714283,8.5714283 0 1 1 -17.14286,0 8.5714283,8.5714283 0 1 1 17.14286,0 z"
       transform="translate(-0.60597151,34.571433)" />
    <path
       sodipodi:type="arc"
       style="fill:#000000;stroke:#ffffff;stroke-opacity:1"
       id="path2989-9-6"
       sodipodi:cx="150"
       sodipodi:cy="379.50504"
       sodipodi:rx="8.5714283"
       sodipodi:ry="8.5714283"
       d="m 158.57143,379.50504 a 8.5714283,8.5714283 0 1 1 -17.14286,0 8.5714283,8.5714283 0 1 1 17.14286,0 z"
       transform="translate(90.679741,34.571433)" />
    <path
       sodipodi:type="arc"
       style="fill:#000000;stroke:#ffffff;stroke-opacity:1"
       id="path2989-5-0"
       sodipodi:cx="150"
       sodipodi:cy="379.50504"
       sodipodi:rx="8.5714283"
       sodipodi:ry="8.5714283"
       d="m 158.57143,379.50504 a 8.5714283,8.5714283 0 1 1 -17.14286,0 8.5714283,8.5714283 0 1 1 17.14286,0 z"
       transform="translate(-91.891685,125.85715)" />
    <path
       sodipodi:type="arc"
       style="fill:#000000;stroke:#ffffff;stroke-opacity:1"
       id="path2989-0-4"
       sodipodi:cx="150"
       sodipodi:cy="379.50504"
       sodipodi:rx="8.5714283"
       sodipodi:ry="8.5714283"
       d="m 158.57143,379.50504 a 8.5714283,8.5714283 0 1 1 -17.14286,0 8.5714283,8.5714283 0 1 1 17.14286,0 z"
       transform="translate(-0.60597151,125.85715)" />
    <path
       sodipodi:type="arc"
       style="fill:#000000;stroke:#ffffff;stroke-opacity:1"
       id="path2989-0-8-9"
       sodipodi:cx="150"
       sodipodi:cy="379.50504"
       sodipodi:rx="8.5714283"
       sodipodi:ry="8.5714283"
       d="m 158.57143,379.50504 a 8.5714283,8.5714283 0 1 1 -17.14286,0 8.5714283,8.5714283 0 1 1 17.14286,0 z"
       transform="translate(90.679741,125.85715)" />
    <path
       sodipodi:type="arc"
       style="fill:#000000;stroke:#ffffff;stroke-opacity:1"
       id="path2989-1"
       sodipodi:cx="150"
       sodipodi:cy="379.50504"
       sodipodi:rx="8.5714283"
       sodipodi:ry="8.5714283"
       d="m 158.57143,379.50504 a 8.5714283,8.5714283 0 1 1 -17.14286,0 8.5714283,8.5714283 0 1 1 17.14286,0 z"
       transform="translate(-46.248828,-11.071424)" />
    <path
       sodipodi:type="arc"
       style="fill:#000000;stroke:#ffffff;stroke-opacity:1"
       id="path2989-5-2"
       sodipodi:cx="150"
       sodipodi:cy="379.50504"
       sodipodi:rx="8.5714283"
       sodipodi:ry="8.5714283"
       d="m 158.57143,379.50504 a 8.5714283,8.5714283 0 1 1 -17.14286,0 8.5714283,8.5714283 0 1 1 17.14286,0 z"
       transform="translate(-46.248828,80.214289)" />
    <path
       sodipodi:type="arc"
       style="fill:#000000;stroke:#ffffff;stroke-opacity:1"
       id="path2989-0-5-1-2"
       sodipodi:cx="150"
       sodipodi:cy="379.50504"
       sodipodi:rx="8.5714283"
       sodipodi:ry="8.5714283"
       d="m 158.57143,379.50504 a 8.5714283,8.5714283 0 1 1 -17.14286,0 8.5714283,8.5714283 0 1 1 17.14286,0 z"
       transform="translate(-46.248828,171.5)" />
    <path
       sodipodi:type="arc"
       style="fill:#000000;stroke:#ffffff;stroke-opacity:1"
       id="path2989-8-2"
       sodipodi:cx="150"
       sodipodi:cy="379.50504"
       sodipodi:rx="8.5714283"
       sodipodi:ry="8.5714283"
       d="m 158.57143,379.50504 a 8.5714283,8.5714283 0 1 1 -17.14286,0 8.5714283,8.5714283 0 1 1 17.14286,0 z"
       transform="translate(-46.248828,34.571433)" />
    <path
       sodipodi:type="arc"
       style="fill:#000000;stroke:#ffffff;stroke-opacity:1"
       id="path2989-5-0-4"
       sodipodi:cx="150"
       sodipodi:cy="379.50504"
       sodipodi:rx="8.5714283"
       sodipodi:ry="8.5714283"
       d="m 158.57143,379.50504 a 8.5714283,8.5714283 0 1 1 -17.14286,0 8.5714283,8.5714283 0 1 1 17.14286,0 z"
       transform="translate(-46.248828,125.85715)" />
    <path
       sodipodi:type="arc"
       style="fill:#000000;stroke:#ffffff;stroke-opacity:1"
       id="path2989-6"
       sodipodi:cx="150"
       sodipodi:cy="379.50504"
       sodipodi:rx="8.5714283"
       sodipodi:ry="8.5714283"
       d="m 158.57143,379.50504 a 8.5714283,8.5714283 0 1 1 -17.14286,0 8.5714283,8.5714283 0 1 1 17.14286,0 z"
       transform="translate(45.036885,-11.071424)" />
    <path
       sodipodi:type="arc"
       style="fill:#000000;stroke:#ffffff;stroke-opacity:1"
       id="path2989-5-02"
       sodipodi:cx="150"
       sodipodi:cy="379.50504"
       sodipodi:rx="8.5714283"
       sodipodi:ry="8.5714283"
       d="m 158.57143,379.50504 a 8.5714283,8.5714283 0 1 1 -17.14286,0 8.5714283,8.5714283 0 1 1 17.14286,0 z"
       transform="translate(45.036885,80.214289)" />
    <path
       sodipodi:type="arc"
       style="fill:#000000;stroke:#ffffff;stroke-opacity:1"
       id="path2989-0-5-1-3"
       sodipodi:cx="150"
       sodipodi:cy="379.50504"
       sodipodi:rx="8.5714283"
       sodipodi:ry="8.5714283"
       d="m 158.57143,379.50504 a 8.5714283,8.5714283 0 1 1 -17.14286,0 8.5714283,8.5714283 0 1 1 17.14286,0 z"
       transform="translate(45.036885,171.5)" />
    <path
       sodipodi:type="arc"
       style="fill:#000000;stroke:#ffffff;stroke-opacity:1"
       id="path2989-8-9"
       sodipodi:cx="150"
       sodipodi:cy="379.50504"
       sodipodi:rx="8.5714283"
       sodipodi:ry="8.5714283"
       d="m 158.57143,379.50504 a 8.5714283,8.5714283 0 1 1 -17.14286,0 8.5714283,8.5714283 0 1 1 17.14286,0 z"
       transform="translate(45.036885,34.571433)" />
    <path
       sodipodi:type="arc"
       style="fill:#000000;stroke:#ffffff;stroke-opacity:1"
       id="path2989-5-0-8"
       sodipodi:cx="150"
       sodipodi:cy="379.50504"
       sodipodi:rx="8.5714283"
       sodipodi:ry="8.5714283"
       d="m 158.57143,379.50504 a 8.5714283,8.5714283 0 1 1 -17.14286,0 8.5714283,8.5714283 0 1 1 17.14286,0 z"
       transform="translate(45.036885,125.85715)" />
  </g>
</svg>
