<?xml version="1.0" encoding="UTF-8" standalone="no"?>
<!-- Created with Inkscape (http://www.inkscape.org/) -->

<svg
   xmlns:dc="http://purl.org/dc/elements/1.1/"
   xmlns:cc="http://creativecommons.org/ns#"
   xmlns:rdf="http://www.w3.org/1999/02/22-rdf-syntax-ns#"
   xmlns:svg="http://www.w3.org/2000/svg"
   xmlns="http://www.w3.org/2000/svg"
   xmlns:sodipodi="http://sodipodi.sourceforge.net/DTD/sodipodi-0.dtd"
   xmlns:inkscape="http://www.inkscape.org/namespaces/inkscape"
   width="245.0715"
   height="114.87384"
   id="svg4161"
   version="1.1"
   inkscape:version="0.48.1 r9760"
   sodipodi:docname="hpclogo.svg"
   style="display:inline">
  <defs
     id="defs4163">
    <clipPath
       clipPathUnits="userSpaceOnUse"
       id="clipPath4282">
      <rect
         style="fill:#ffffff;fill-opacity:1;fill-rule:nonzero;stroke:#000000;stroke-width:0.2;stroke-linejoin:miter;stroke-miterlimit:4;stroke-opacity:1;stroke-dasharray:0.6, 0.2;stroke-dashoffset:0"
         id="rect4284"
         width="166.07143"
         height="188.92857"
         x="208.21428"
         y="508.43359"
         ry="0" />
    </clipPath>
  </defs>
  <sodipodi:namedview
     id="base"
     pagecolor="#ffffff"
     bordercolor="#666666"
     borderopacity="1.0"
     inkscape:pageopacity="0.0"
     inkscape:pageshadow="2"
     inkscape:zoom="2"
     inkscape:cx="83.21475"
     inkscape:cy="94.85144"
     inkscape:document-units="px"
     inkscape:current-layer="layer7"
     showgrid="false"
     inkscape:window-width="1920"
     inkscape:window-height="1125"
     inkscape:window-x="0"
     inkscape:window-y="25"
     inkscape:window-maximized="1"
     fit-margin-top="0"
     fit-margin-left="0"
     fit-margin-right="0"
     fit-margin-bottom="0" />
  <metadata
     id="metadata4166">
    <rdf:RDF>
      <cc:Work
         rdf:about="">
        <dc:format>image/svg+xml</dc:format>
        <dc:type
           rdf:resource="http://purl.org/dc/dcmitype/StillImage" />
        <dc:title />
      </cc:Work>
    </rdf:RDF>
  </metadata>
  <g
     inkscape:groupmode="layer"
     id="layer7"
     inkscape:label="Boat"
     style="display:inline"
     transform="translate(-237,-537.48835)">
    <path
       style="fill:#000000;display:inline"
       d="m 248.14988,650.94909 c -1.71109,-1.29702 -1.48673,-1.83385 3.69449,-8.83991 3.03391,-4.10246 6.11746,-7.68974 6.85233,-7.97174 0.73487,-0.28199 4.13485,-4.44729 7.55551,-9.25621 7.93865,-11.16051 8.08629,-10.08878 0.21939,1.59251 -3.3,4.90005 -6,9.70906 -6,10.68667 0,0.97762 -1.27232,3.34251 -2.82739,5.25533 -1.55506,1.91281 -3.67708,4.94034 -4.71561,6.72784 -2.12928,3.66491 -2.26037,3.71444 -4.77872,1.80551 z m 17.06511,0.36747 c -1.45613,-0.85361 -1.5582,-1.40551 -0.59669,-3.22637 2.31279,-4.37986 10.13824,-13.11784 11.30476,-13.69661 0.62352,-0.30936 0.78103,-0.87364 1.6955,-1.46755 1.33911,-2.25429 8.7064,-12.69993 9.22286,-12.18346 0.27296,0.27295 -1.44218,3.26703 -3.04753,5.3549 -4.33041,5.63197 -6.32229,9.03552 -6.32229,10.80297 0,1.47723 -3.94489,7.52399 -8.5,13.02887 -1.57893,1.90814 -2.36983,2.20021 -3.75661,1.38725 z m 16.93696,-0.36595 c -1.72276,-1.30593 -1.62419,-1.66363 1.85116,-6.7182 2.01894,-2.93636 5.31919,-6.91383 7.33388,-8.83883 2.0147,-1.925 7.06992,-8.13675 8.94217,-10.74834 5.10505,-7.121 2.99729,-2.4467 -2.15036,5.07221 -2.4587,3.5913 -4.24899,6.751 -3.97843,7.02156 0.41787,0.41788 -9.33283,15.71352 -9.95924,15.62277 -0.12074,-0.0175 -1.03837,-0.65252 -2.03918,-1.41117 z m 16.94637,0.15929 c -1.71741,-1.2558 -1.53779,-1.76278 3.0237,-8.53458 2.66727,-3.9597 5.54389,-7.42122 6.39249,-7.69226 0.8486,-0.27104 3.97198,-3.85618 6.94084,-7.96697 2.96885,-4.1108 6.90042,-9.25293 7.09444,-9.0589 0.19403,0.19403 -3.46032,5.89593 -6.47841,10.30283 -3.01809,4.40691 -5.24334,8.25667 -4.94499,8.55502 0.50453,0.50453 -4.33624,8.23955 -8.42002,13.45426 -1.54919,1.97822 -2.02086,2.10118 -3.60805,0.9406 z m -28.96229,-27.46632 c 0.9408,-1.5125 2.35575,-3.52074 3.14434,-4.46276 0.78859,-0.94201 1.16834,-2.40451 0.8439,-3.25 -0.41038,-1.06941 0.023,-1.53724 1.42417,-1.53724 2.61405,0 6.92316,-4.32865 6.92316,-6.95454 0,-1.125 0.45,-2.04546 1,-2.04546 0.55,0 1,0.92046 1,2.04546 0,3.12396 4.40641,6.95454 8,6.95454 3.69347,0 7.98182,-3.84316 8.03914,-7.20454 0.0328,-1.92174 0.27945,-1.74178 1.51515,1.10537 1.83532,4.22873 4.12875,6.02627 7.74116,6.06737 3.37505,0.0384 7.67064,-3.91898 7.78577,-7.17274 0.0782,-2.2105 0.12496,-2.19703 1.26305,0.36397 2.06384,4.64419 4.73225,6.84057 8.31072,6.84057 3.77532,0 6.95464,-2.59646 7.92798,-6.47456 0.46528,-1.85381 1.29533,-2.52544 3.12115,-2.52544 3.22664,0 7.81863,-2.73973 9.33222,-5.56791 1.08499,-2.02732 1.00194,-4.92291 -0.35827,-12.49004 l -0.45979,-2.55795 5.64086,1.8948 c 3.10247,1.04214 6.34539,2.52537 7.20648,3.29607 0.86109,0.7707 2.99128,1.68641 4.73377,2.03491 1.74248,0.34849 2.96119,0.96849 2.70825,1.37776 -0.25295,0.40928 -1.59823,0.52654 -2.98952,0.26057 -2.89708,-0.55381 -5.85637,1.42795 -5.09501,3.412 0.28276,0.73689 0.11127,1.33979 -0.3811,1.33979 -0.49238,0 -2.24919,2.36648 -3.90404,5.25885 -4.20364,7.34719 -11.97496,14.73515 -19.62949,18.66116 -5.17441,2.65395 -6.79058,3.09075 -7.93169,2.14372 -1.12072,-0.93012 -2.10274,-0.84311 -4.50496,0.39912 -3.81928,1.97503 -3.82795,1.49648 -0.0718,-3.96285 3.44376,-5.00534 3.47151,-5.10509 1.61785,-5.81641 -0.86832,-0.3332 -2.97774,1.67211 -5.67405,5.39399 -4.17249,5.75954 -4.35666,5.88192 -6.62009,4.39887 -2.09384,-1.37194 -2.6393,-1.36461 -5.41888,0.0728 -1.69988,0.87904 -3.27702,1.41193 -3.50475,1.1842 -0.22773,-0.22773 0.93909,-2.28201 2.59293,-4.56508 3.36313,-4.64265 3.63115,-5.71485 1.62136,-6.48607 -0.87402,-0.3354 -2.76509,1.47121 -5.12177,4.89301 -3.79321,5.50757 -5.18546,6.33186 -7.23424,4.28309 -0.85551,-0.85552 -2.0538,-0.70879 -4.78121,0.58545 -2.00177,0.9499 -3.80096,1.56571 -3.9982,1.36847 -0.19724,-0.19724 0.9643,-2.32842 2.58121,-4.73594 3.33612,-4.96736 3.49937,-5.64766 1.53606,-6.40105 -0.90302,-0.34652 -2.69026,1.39892 -5.01021,4.89301 -3.94269,5.93812 -3.86608,5.88736 -6.64272,4.40134 -1.41426,-0.75688 -2.71067,-0.62418 -4.8846,0.5 -4.35027,2.24962 -5.33263,1.89663 -3.39426,-1.21965 z m -8.66443,0.75752 c -0.825,-0.52903 -2.21131,-0.74099 -3.08069,-0.47104 -2.18468,0.67837 -9.68845,-7.00929 -11.99259,-12.28648 -1.63913,-3.75411 -2.239,-4.25179 -5.14118,-4.26531 -2.4892,-0.0116 -2.92197,-0.25027 -1.78554,-0.98469 0.825,-0.53316 3.36372,-0.97627 5.64159,-0.98469 3.57728,-0.0132 4.22614,0.32156 4.76211,2.45701 1.61742,6.44432 9.68909,8.76776 13.52372,3.89282 1.13992,-1.44917 2.07258,-3.50073 2.07258,-4.55902 0,-1.05828 0.45,-1.64604 1,-1.30612 0.55,0.33992 1,1.49445 1,2.56563 0,1.07118 1.12852,2.92883 2.50781,4.12811 l 2.50781,2.18052 -2.32567,2.56287 c -1.27911,1.40958 -3.093,3.80037 -4.03086,5.31287 -1.85851,2.99725 -2.40453,3.20323 -4.65909,1.75752 z m 36.88994,3.2169 c -0.19031,-0.45936 6.62234,-9.76043 7.80237,-10.80817 2.13061,-1.89176 -1.64312,4.32823 -3.11544,6.29973 -1.58425,2.12137 -4.10371,5.91617 -4.68693,4.50844 z m -15.41563,-1.33273 c 0.0127,-1.32306 6.38146,-10.36925 6.94696,-9.80375 0.24307,0.24307 -0.41727,1.56022 -1.46743,2.927 -1.05015,1.36678 -5.48479,7.42675 -5.47953,6.87675 z m 33.22239,0.66743 c 0,-0.55 5.7533,-9.7192 6.3033,-10.05912 0.55,-0.33992 1,-0.16803 1,0.38197 0,0.55 -0.45,1.27811 -1,1.61803 -0.55,0.33992 -6.3033,8.60912 -6.3033,8.05912 z m -63.14,-16.78163 c -3.34471,-4.77525 -0.65929,-9.77749 5.24899,-9.77749 3.94032,0 6.60504,3.51535 5.62491,7.42049 -1.2095,4.81901 -8.10286,6.31321 -10.8739,2.357 z m 6.86151,-1.38448 c 2.10803,-0.80892 1.99907,-2.7054 -0.27359,-4.76213 -2.33988,-2.11756 -5.14462,-1.13109 -5.14462,1.80944 0,3.4326 1.72205,4.37104 5.41821,2.95269 z m 10.23678,1.77825 c -5.07809,-5.61122 2.53048,-13.38285 8.59501,-8.77921 2.02948,1.54059 2.3823,7.57565 0.55,9.40795 -1.82153,1.82153 -7.26632,1.44719 -9.14501,-0.62874 z m 7.1825,-4.05817 c 0.40626,-2.87323 -1.55404,-4.33516 -4.03361,-3.00813 -1.80747,0.96733 -2.42517,3.94041 -1.09503,5.27056 1.5287,1.52869 4.79642,0.0872 5.12864,-2.26243 z m 10.73394,4.31548 c -2.02104,-2.02104 -2.02104,-6.8361 0,-8.85714 0.86428,-0.86429 2.85714,-1.57143 4.42857,-1.57143 3.61702,0 6,2.34979 6,5.91644 0,5.20434 -6.79596,8.14475 -10.42857,4.51213 z m 7.22683,-4.01607 c 0.36402,-2.54779 -1.9553,-4.67321 -4.17151,-3.82276 -0.99526,0.38191 -1.62675,1.77307 -1.62675,3.58367 0,2.63852 0.29821,2.92512 2.75,2.64301 1.89635,-0.2182 2.84258,-0.96442 3.04826,-2.40392 z m 9.77317,4.01607 c -2.12179,-2.12179 -1.98626,-6.74318 0.25731,-8.77358 2.18611,-1.9784 6.00437,-2.09762 8.42126,-0.26294 2.48667,1.88764 2.365,8.20844 -0.18426,9.57277 -2.82218,1.51038 -6.69198,1.26608 -8.49431,-0.53625 z m 7.23266,-4.55082 c 0.34768,-2.99808 -2.22179,-4.6059 -4.43084,-2.77256 -1.46782,1.21818 -1.83152,4.10321 -0.6644,5.27033 1.62973,1.62973 4.79663,0.0773 5.09524,-2.49777 z m 10.18675,3.88204 c -1.48188,-1.5906 -1.90482,-2.96637 -1.45857,-4.74441 0.9585,-3.81896 2.39779,-5.01538 6.03347,-5.01538 5.68141,0 8.37032,6.06394 4.43426,10 -2.63751,2.63751 -6.42217,2.5366 -9.00916,-0.24021 z m 7.69969,-2.39571 c 0.82725,-2.15578 -0.94923,-4.86408 -3.19053,-4.86408 -2.2413,0 -4.01778,2.7083 -3.19053,4.86408 0.8209,2.13924 5.56016,2.13924 6.38106,0 z M 239.6533,597.52704 c -1.03636,-0.65715 -0.68252,-2.01104 1.65459,-6.33087 4.45166,-8.22826 7.16371,-19.06192 7.16371,-28.61638 0,-4.50241 0.35631,-8.18621 0.79179,-8.18621 1.05204,0 8.4432,7.8317 10.41136,11.03191 0.85644,1.39254 2.37301,5.1201 3.37017,8.28345 1.58231,5.01968 1.65767,6.50365 0.5922,11.66213 -0.67145,3.25083 -1.88941,7.51077 -2.70658,9.46655 l -1.48578,3.55596 -9.23658,-0.0153 c -5.08012,-0.008 -9.82981,-0.39148 -10.55488,-0.85124 z m 22.8183,0.52018 c 0,-0.1905 0.69208,-1.73368 1.53796,-3.42929 2.94203,-5.89743 3.98597,-13.6921 2.67516,-19.97435 -1.43946,-6.8988 -5.85465,-16.18326 -10.73604,-22.57622 l -3.56869,-4.67378 4.2958,-0.10021 c 2.3627,-0.0551 8.7219,-0.39262 14.13156,-0.75 6.15808,-0.40683 10.13475,-0.27588 10.6354,0.35021 0.964,1.20553 4.13384,9.13221 6.39833,16 2.25109,6.82717 4.59189,21.66941 4.61306,29.25 l 0.0175,6.25 -15,0 c -8.25,0 -15,-0.15586 -15,-0.34636 z m 33.55058,-5.40364 c -2.25039,-21.80863 -4.43885,-33.2275 -7.9355,-41.40554 l -1.56299,-3.65555 10.72396,-0.63218 c 5.89817,-0.3477 12.48204,-0.7277 14.63082,-0.84445 3.84413,-0.20887 3.95816,-0.11213 7.10133,6.0249 6.2785,12.25876 6.25746,27.59577 -0.0535,38.96414 -4.14138,7.46019 -3.84253,7.29868 -13.50522,7.29868 l -8.8056,0 -0.59333,-5.75 z m 26.14976,0.71757 c 2.36645,-4.9447 5.18743,-17.08442 5.41566,-23.30554 0.0775,-2.11193 0.27718,-2.49784 0.60134,-1.16203 1.01979,4.20241 9.25587,20.20885 12.73507,24.75 l 3.6392,4.75 -12.39985,0 -12.39985,0 z M 238.4716,551.98909 c 5.15325,-3.12475 6.44179,-3.45255 7.94048,-2.02002 1.92064,1.83586 1.49119,2.08508 -4.94048,2.86715 -5.21706,0.63437 -5.37139,0.59079 -3,-0.84713 z m 13,-9.53916 c -1.17465,-0.80325 -0.82433,-1.02905 1.61514,-1.04104 1.71333,-0.008 4.25931,-0.91531 5.65773,-2.01531 3.36822,-2.64944 6.16495,-2.52926 7.46349,0.32073 0.98232,2.15594 0.83395,2.32452 -2.08948,2.37409 -1.73078,0.0294 -4.94688,0.3535 -7.14688,0.72032 -2.27191,0.3788 -4.64803,0.2238 -5.5,-0.35879 z m 34,0 c -1.17465,-0.80325 -0.82433,-1.02905 1.61514,-1.04104 1.71333,-0.008 4.25931,-0.91531 5.65773,-2.01531 3.36822,-2.64944 6.16495,-2.52926 7.46349,0.32073 0.98232,2.15594 0.83395,2.32452 -2.08948,2.37409 -1.73078,0.0294 -4.94688,0.3535 -7.14688,0.72032 -2.27191,0.3788 -4.64803,0.2238 -5.5,-0.35879 z"
       id="path3029"
       inkscape:connector-curvature="0"
       sodipodi:nodetypes="sscsssssssssccsssssssssscssssscsssscscssssscssssssssscssssscsssssssssssscsssssssssccsssssssssssscssssssscsscsssssssssssssssssssssssssssssssssssssssssssssssssssssssssccscssscssssscscccscssssscccsssscccsssssscsscssscsscss" />
  </g>
  <g
     inkscape:groupmode="layer"
     id="layer3"
     inkscape:label="Research"
     style="display:inline"
     transform="translate(-237,-537.48835)">
    <text
       xml:space="preserve"
       style="font-size:40px;font-style:normal;font-weight:normal;line-height:125%;letter-spacing:-1.37px;word-spacing:0px;fill:#000000;fill-opacity:1;stroke:none;font-family:Sans"
       x="388.21423"
       y="616.29199"
       id="text4257"
       sodipodi:linespacing="125%"><tspan
         sodipodi:role="line"
         id="tspan4259"
         x="388.21423"
         y="616.29199"
         style="font-size:22px;font-style:normal;font-variant:normal;font-weight:normal;font-stretch:normal;letter-spacing:-1.37px;word-spacing:0px;fill:#000000;font-family:Serif;-inkscape-font-specification:Serif">Research</tspan></text>
  </g>
  <g
     inkscape:groupmode="layer"
     id="layer4"
     inkscape:label="Group"
     style="display:inline"
     transform="translate(-237,-537.48835)">
    <text
       xml:space="preserve"
       style="font-size:40px;font-style:normal;font-weight:normal;line-height:125%;letter-spacing:-0.75px;word-spacing:0px;fill:#000000;fill-opacity:1;stroke:none;font-family:Sans"
       x="402.67206"
       y="644.6394"
       id="text4248"
       sodipodi:linespacing="125%"><tspan
         sodipodi:role="line"
         id="tspan4250"
         x="402.67206"
         y="644.6394"
         style="font-size:22px;font-style:normal;font-variant:normal;font-weight:normal;font-stretch:normal;letter-spacing:-0.75px;fill:#000000;font-family:Serif;-inkscape-font-specification:Serif">Group</tspan></text>
  </g>
  <g
     inkscape:groupmode="layer"
     id="layer5"
     inkscape:label="HPC"
     style="display:inline"
     transform="translate(-237,-537.48835)">
    <text
       xml:space="preserve"
       style="font-size:40px;font-style:normal;font-weight:normal;line-height:125%;letter-spacing:-1.39999998px;word-spacing:0px;fill:#000000;fill-opacity:1;stroke:none;font-family:Sans"
       x="385.62573"
       y="582.6413"
       id="text4262"
       sodipodi:linespacing="125%"><tspan
         sodipodi:role="line"
         id="tspan4264"
         x="385.62573"
         y="582.6413"
         style="font-size:44px;font-style:normal;font-variant:normal;font-weight:normal;font-stretch:normal;letter-spacing:-1.39999998px;fill:#000000;font-family:Serif;-inkscape-font-specification:Serif">HPC</tspan></text>
  </g>
</svg>
