<?xml version="1.0" encoding="UTF-8" standalone="no"?>
<!-- Created with Inkscape (http://www.inkscape.org/) -->

<svg
   xmlns:dc="http://purl.org/dc/elements/1.1/"
   xmlns:cc="http://creativecommons.org/ns#"
   xmlns:rdf="http://www.w3.org/1999/02/22-rdf-syntax-ns#"
   xmlns:svg="http://www.w3.org/2000/svg"
   xmlns="http://www.w3.org/2000/svg"
   xmlns:sodipodi="http://sodipodi.sourceforge.net/DTD/sodipodi-0.dtd"
   xmlns:inkscape="http://www.inkscape.org/namespaces/inkscape"
   width="106.74313"
   height="106.74313"
   id="svg2"
   version="1.1"
   inkscape:version="0.48.1 r9760"
   sodipodi:docname="neighbormask.svg">
  <defs
     id="defs4">
    <marker
       inkscape:stockid="Arrow1Lend"
       orient="auto"
       refY="0"
       refX="0"
       id="Arrow1Lend"
       style="overflow:visible">
      <path
         id="path4081"
         d="M 0,0 5,-5 -12.5,0 5,5 0,0 z"
         style="fill-rule:evenodd;stroke:#000000;stroke-width:1pt;marker-start:none"
         transform="matrix(-0.8,0,0,-0.8,-10,0)"
         inkscape:connector-curvature="0" />
    </marker>
    <marker
       inkscape:stockid="Arrow1Lstart"
       orient="auto"
       refY="0"
       refX="0"
       id="Arrow1Lstart"
       style="overflow:visible">
      <path
         id="path4078"
         d="M 0,0 5,-5 -12.5,0 5,5 0,0 z"
         style="fill-rule:evenodd;stroke:#000000;stroke-width:1pt;marker-start:none"
         transform="matrix(0.8,0,0,0.8,10,0)"
         inkscape:connector-curvature="0" />
    </marker>
  </defs>
  <sodipodi:namedview
     id="base"
     pagecolor="#ffffff"
     bordercolor="#666666"
     borderopacity="1.0"
     inkscape:pageopacity="0.0"
     inkscape:pageshadow="2"
     inkscape:zoom="1.979899"
     inkscape:cx="-211.68064"
     inkscape:cy="-41.849839"
     inkscape:document-units="px"
     inkscape:current-layer="layer1"
     showgrid="false"
     inkscape:window-width="1920"
     inkscape:window-height="1125"
     inkscape:window-x="0"
     inkscape:window-y="25"
     inkscape:window-maximized="1"
     fit-margin-top="0"
     fit-margin-left="0"
     fit-margin-right="0"
     fit-margin-bottom="0" />
  <metadata
     id="metadata7">
    <rdf:RDF>
      <cc:Work
         rdf:about="">
        <dc:format>image/svg+xml</dc:format>
        <dc:type
           rdf:resource="http://purl.org/dc/dcmitype/StillImage" />
        <dc:title />
      </cc:Work>
    </rdf:RDF>
  </metadata>
  <g
     inkscape:label="Layer 1"
     inkscape:groupmode="layer"
     id="layer1"
     transform="translate(-30.38054,-31.979484)">
    <path
       sodipodi:type="arc"
       style="fill:#000000;fill-opacity:0;stroke:#000000"
       id="path2991"
       sodipodi:cx="124.75384"
       sodipodi:cy="168.98378"
       sodipodi:rx="6.5659914"
       sodipodi:ry="6.5659914"
       d="m 131.31983,168.98378 c 0,3.6263 -2.9397,6.56599 -6.56599,6.56599 -3.6263,0 -6.56599,-2.93969 -6.56599,-6.56599 0,-3.6263 2.93969,-6.56599 6.56599,-6.56599 3.62629,0 6.56599,2.93969 6.56599,6.56599 z"
       transform="matrix(0.66152264,0,0,0.66152264,-47.472635,-75.132799)" />
    <path
       sodipodi:type="arc"
       style="fill:#000000;fill-opacity:1;stroke:#000000"
       id="path2991-7"
       sodipodi:cx="124.75384"
       sodipodi:cy="168.98378"
       sodipodi:rx="6.5659914"
       sodipodi:ry="6.5659914"
       d="m 131.31983,168.98378 c 0,3.6263 -2.9397,6.56599 -6.56599,6.56599 -3.6263,0 -6.56599,-2.93969 -6.56599,-6.56599 0,-3.6263 2.93969,-6.56599 6.56599,-6.56599 3.62629,0 6.56599,2.93969 6.56599,6.56599 z"
       transform="matrix(0.66152264,0,0,0.66152264,25.573249,-50.784172)" />
    <path
       sodipodi:type="arc"
       style="fill:#000000;fill-opacity:1;stroke:#000000"
       id="path2991-79"
       sodipodi:cx="124.75384"
       sodipodi:cy="168.98378"
       sodipodi:rx="6.5659914"
       sodipodi:ry="6.5659914"
       d="m 131.31983,168.98378 c 0,3.6263 -2.9397,6.56599 -6.56599,6.56599 -3.6263,0 -6.56599,-2.93969 -6.56599,-6.56599 0,-3.6263 2.93969,-6.56599 6.56599,-6.56599 3.62629,0 6.56599,2.93969 6.56599,6.56599 z"
       transform="matrix(0.66152264,0,0,0.66152264,1.2246178,-50.784172)" />
    <path
       sodipodi:type="arc"
       style="fill:#000000;fill-opacity:1;stroke:#000000"
       id="path2991-798"
       sodipodi:cx="124.75384"
       sodipodi:cy="168.98378"
       sodipodi:rx="6.5659914"
       sodipodi:ry="6.5659914"
       d="m 131.31983,168.98378 c 0,3.6263 -2.9397,6.56599 -6.56599,6.56599 -3.6263,0 -6.56599,-2.93969 -6.56599,-6.56599 0,-3.6263 2.93969,-6.56599 6.56599,-6.56599 3.62629,0 6.56599,2.93969 6.56599,6.56599 z"
       transform="matrix(0.66152264,0,0,0.66152264,-23.124008,-50.784172)" />
    <path
       sodipodi:type="arc"
       style="fill:#000000;fill-opacity:1;stroke:#000000"
       id="path2991-8"
       sodipodi:cx="124.75384"
       sodipodi:cy="168.98378"
       sodipodi:rx="6.5659914"
       sodipodi:ry="6.5659914"
       d="m 131.31983,168.98378 c 0,3.6263 -2.9397,6.56599 -6.56599,6.56599 -3.6263,0 -6.56599,-2.93969 -6.56599,-6.56599 0,-3.6263 2.93969,-6.56599 6.56599,-6.56599 3.62629,0 6.56599,2.93969 6.56599,6.56599 z"
       transform="matrix(0.66152264,0,0,0.66152264,-47.472635,-50.784172)" />
    <path
       sodipodi:type="arc"
       style="fill:#000000;fill-opacity:0;stroke:#000000"
       id="path2991-9"
       sodipodi:cx="124.75384"
       sodipodi:cy="168.98378"
       sodipodi:rx="6.5659914"
       sodipodi:ry="6.5659914"
       d="m 131.31983,168.98378 c 0,3.6263 -2.9397,6.56599 -6.56599,6.56599 -3.6263,0 -6.56599,-2.93969 -6.56599,-6.56599 0,-3.6263 2.93969,-6.56599 6.56599,-6.56599 3.62629,0 6.56599,2.93969 6.56599,6.56599 z"
       transform="matrix(0.66152264,0,0,0.66152264,49.921869,-75.132799)" />
    <path
       sodipodi:type="arc"
       style="fill:#000000;fill-opacity:0;stroke:#000000"
       id="path2991-7-8"
       sodipodi:cx="124.75384"
       sodipodi:cy="168.98378"
       sodipodi:rx="6.5659914"
       sodipodi:ry="6.5659914"
       d="m 131.31983,168.98378 c 0,3.6263 -2.9397,6.56599 -6.56599,6.56599 -3.6263,0 -6.56599,-2.93969 -6.56599,-6.56599 0,-3.6263 2.93969,-6.56599 6.56599,-6.56599 3.62629,0 6.56599,2.93969 6.56599,6.56599 z"
       transform="matrix(0.66152264,0,0,0.66152264,49.921869,22.261711)" />
    <path
       sodipodi:type="arc"
       style="fill:#000000;fill-opacity:1;stroke:#000000"
       id="path2991-79-0"
       sodipodi:cx="124.75384"
       sodipodi:cy="168.98378"
       sodipodi:rx="6.5659914"
       sodipodi:ry="6.5659914"
       d="m 131.31983,168.98378 c 0,3.6263 -2.9397,6.56599 -6.56599,6.56599 -3.6263,0 -6.56599,-2.93969 -6.56599,-6.56599 0,-3.6263 2.93969,-6.56599 6.56599,-6.56599 3.62629,0 6.56599,2.93969 6.56599,6.56599 z"
       transform="matrix(0.66152264,0,0,0.66152264,25.573249,22.261711)" />
    <path
       sodipodi:type="arc"
       style="fill:#000000;fill-opacity:0;stroke:#000000"
       id="path2991-798-5"
       sodipodi:cx="124.75384"
       sodipodi:cy="168.98378"
       sodipodi:rx="6.5659914"
       sodipodi:ry="6.5659914"
       d="m 131.31983,168.98378 c 0,3.6263 -2.9397,6.56599 -6.56599,6.56599 -3.6263,0 -6.56599,-2.93969 -6.56599,-6.56599 0,-3.6263 2.93969,-6.56599 6.56599,-6.56599 3.62629,0 6.56599,2.93969 6.56599,6.56599 z"
       transform="matrix(0.66152264,0,0,0.66152264,1.2246178,22.261711)" />
    <path
       sodipodi:type="arc"
       style="fill:#000000;fill-opacity:1;stroke:#000000"
       id="path2991-8-2"
       sodipodi:cx="124.75384"
       sodipodi:cy="168.98378"
       sodipodi:rx="6.5659914"
       sodipodi:ry="6.5659914"
       d="m 131.31983,168.98378 c 0,3.6263 -2.9397,6.56599 -6.56599,6.56599 -3.6263,0 -6.56599,-2.93969 -6.56599,-6.56599 0,-3.6263 2.93969,-6.56599 6.56599,-6.56599 3.62629,0 6.56599,2.93969 6.56599,6.56599 z"
       transform="matrix(0.66152264,0,0,0.66152264,-23.124008,22.261711)" />
    <path
       sodipodi:type="arc"
       style="fill:#000000;fill-opacity:1;stroke:#000000"
       id="path2991-0"
       sodipodi:cx="124.75384"
       sodipodi:cy="168.98378"
       sodipodi:rx="6.5659914"
       sodipodi:ry="6.5659914"
       d="m 131.31983,168.98378 c 0,3.6263 -2.9397,6.56599 -6.56599,6.56599 -3.6263,0 -6.56599,-2.93969 -6.56599,-6.56599 0,-3.6263 2.93969,-6.56599 6.56599,-6.56599 3.62629,0 6.56599,2.93969 6.56599,6.56599 z"
       transform="matrix(0.66152264,0,0,0.66152264,25.573249,-75.132799)" />
    <path
       sodipodi:type="arc"
       style="fill:#000000;fill-opacity:0;stroke:#000000"
       id="path2991-7-2"
       sodipodi:cx="124.75384"
       sodipodi:cy="168.98378"
       sodipodi:rx="6.5659914"
       sodipodi:ry="6.5659914"
       d="m 131.31983,168.98378 c 0,3.6263 -2.9397,6.56599 -6.56599,6.56599 -3.6263,0 -6.56599,-2.93969 -6.56599,-6.56599 0,-3.6263 2.93969,-6.56599 6.56599,-6.56599 3.62629,0 6.56599,2.93969 6.56599,6.56599 z"
       transform="matrix(0.66152264,0,0,0.66152264,-47.472635,22.261711)" />
    <path
       sodipodi:type="arc"
       style="fill:#000000;fill-opacity:1;stroke:#000000"
       id="path2991-79-4"
       sodipodi:cx="124.75384"
       sodipodi:cy="168.98378"
       sodipodi:rx="6.5659914"
       sodipodi:ry="6.5659914"
       d="m 131.31983,168.98378 c 0,3.6263 -2.9397,6.56599 -6.56599,6.56599 -3.6263,0 -6.56599,-2.93969 -6.56599,-6.56599 0,-3.6263 2.93969,-6.56599 6.56599,-6.56599 3.62629,0 6.56599,2.93969 6.56599,6.56599 z"
       transform="matrix(0.66152264,0,0,0.66152264,49.921869,-2.0869186)" />
    <path
       sodipodi:type="arc"
       style="fill:#000000;fill-opacity:1;stroke:#000000"
       id="path2991-798-3"
       sodipodi:cx="124.75384"
       sodipodi:cy="168.98378"
       sodipodi:rx="6.5659914"
       sodipodi:ry="6.5659914"
       d="m 131.31983,168.98378 c 0,3.6263 -2.9397,6.56599 -6.56599,6.56599 -3.6263,0 -6.56599,-2.93969 -6.56599,-6.56599 0,-3.6263 2.93969,-6.56599 6.56599,-6.56599 3.62629,0 6.56599,2.93969 6.56599,6.56599 z"
       transform="matrix(0.66152264,0,0,0.66152264,25.573249,-2.0869186)" />
    <path
       sodipodi:type="arc"
       style="fill:#000000;fill-opacity:1;stroke:#000000"
       id="path2991-8-7"
       sodipodi:cx="124.75384"
       sodipodi:cy="168.98378"
       sodipodi:rx="6.5659914"
       sodipodi:ry="6.5659914"
       d="m 131.31983,168.98378 c 0,3.6263 -2.9397,6.56599 -6.56599,6.56599 -3.6263,0 -6.56599,-2.93969 -6.56599,-6.56599 0,-3.6263 2.93969,-6.56599 6.56599,-6.56599 3.62629,0 6.56599,2.93969 6.56599,6.56599 z"
       transform="matrix(0.66152264,0,0,0.66152264,1.2246178,-2.0869186)" />
    <path
       sodipodi:type="arc"
       style="fill:#000000;fill-opacity:0;stroke:#000000"
       id="path2991-3"
       sodipodi:cx="124.75384"
       sodipodi:cy="168.98378"
       sodipodi:rx="6.5659914"
       sodipodi:ry="6.5659914"
       d="m 131.31983,168.98378 c 0,3.6263 -2.9397,6.56599 -6.56599,6.56599 -3.6263,0 -6.56599,-2.93969 -6.56599,-6.56599 0,-3.6263 2.93969,-6.56599 6.56599,-6.56599 3.62629,0 6.56599,2.93969 6.56599,6.56599 z"
       transform="matrix(0.66152264,0,0,0.66152264,1.2246178,-75.132799)" />
    <path
       sodipodi:type="arc"
       style="fill:#000000;fill-opacity:1;stroke:#000000"
       id="path2991-7-0"
       sodipodi:cx="124.75384"
       sodipodi:cy="168.98378"
       sodipodi:rx="6.5659914"
       sodipodi:ry="6.5659914"
       d="m 131.31983,168.98378 c 0,3.6263 -2.9397,6.56599 -6.56599,6.56599 -3.6263,0 -6.56599,-2.93969 -6.56599,-6.56599 0,-3.6263 2.93969,-6.56599 6.56599,-6.56599 3.62629,0 6.56599,2.93969 6.56599,6.56599 z"
       transform="matrix(0.66152264,0,0,0.66152264,-23.124008,-2.0869186)" />
    <path
       sodipodi:type="arc"
       style="fill:#000000;fill-opacity:1;stroke:#000000"
       id="path2991-79-01"
       sodipodi:cx="124.75384"
       sodipodi:cy="168.98378"
       sodipodi:rx="6.5659914"
       sodipodi:ry="6.5659914"
       d="m 131.31983,168.98378 c 0,3.6263 -2.9397,6.56599 -6.56599,6.56599 -3.6263,0 -6.56599,-2.93969 -6.56599,-6.56599 0,-3.6263 2.93969,-6.56599 6.56599,-6.56599 3.62629,0 6.56599,2.93969 6.56599,6.56599 z"
       transform="matrix(0.66152264,0,0,0.66152264,-47.472635,-2.0869186)" />
    <path
       sodipodi:type="arc"
       style="fill:#000000;fill-opacity:0;stroke:#000000"
       id="path2991-798-58"
       sodipodi:cx="124.75384"
       sodipodi:cy="168.98378"
       sodipodi:rx="6.5659914"
       sodipodi:ry="6.5659914"
       d="m 131.31983,168.98378 c 0,3.6263 -2.9397,6.56599 -6.56599,6.56599 -3.6263,0 -6.56599,-2.93969 -6.56599,-6.56599 0,-3.6263 2.93969,-6.56599 6.56599,-6.56599 3.62629,0 6.56599,2.93969 6.56599,6.56599 z"
       transform="matrix(0.66152264,0,0,0.66152264,49.921869,-26.435546)" />
    <path
       sodipodi:type="arc"
       style="fill:#000000;fill-opacity:1;stroke:#000000"
       id="path2991-8-0"
       sodipodi:cx="124.75384"
       sodipodi:cy="168.98378"
       sodipodi:rx="6.5659914"
       sodipodi:ry="6.5659914"
       d="m 131.31983,168.98378 c 0,3.6263 -2.9397,6.56599 -6.56599,6.56599 -3.6263,0 -6.56599,-2.93969 -6.56599,-6.56599 0,-3.6263 2.93969,-6.56599 6.56599,-6.56599 3.62629,0 6.56599,2.93969 6.56599,6.56599 z"
       transform="matrix(0.66152264,0,0,0.66152264,25.573249,-26.435546)" />
    <path
       sodipodi:type="arc"
       style="fill:#000000;fill-opacity:1;stroke:#000000"
       id="path2991-00"
       sodipodi:cx="124.75384"
       sodipodi:cy="168.98378"
       sodipodi:rx="6.5659914"
       sodipodi:ry="6.5659914"
       d="m 131.31983,168.98378 c 0,3.6263 -2.9397,6.56599 -6.56599,6.56599 -3.6263,0 -6.56599,-2.93969 -6.56599,-6.56599 0,-3.6263 2.93969,-6.56599 6.56599,-6.56599 3.62629,0 6.56599,2.93969 6.56599,6.56599 z"
       transform="matrix(0.66152264,0,0,0.66152264,-23.124008,-75.132799)" />
    <path
       sodipodi:type="arc"
       style="fill:#999999;fill-opacity:1;stroke:#000000"
       id="path2991-7-4"
       sodipodi:cx="124.75384"
       sodipodi:cy="168.98378"
       sodipodi:rx="6.5659914"
       sodipodi:ry="6.5659914"
       d="m 131.31983,168.98378 c 0,3.6263 -2.9397,6.56599 -6.56599,6.56599 -3.6263,0 -6.56599,-2.93969 -6.56599,-6.56599 0,-3.6263 2.93969,-6.56599 6.56599,-6.56599 3.62629,0 6.56599,2.93969 6.56599,6.56599 z"
       transform="matrix(0.66152264,0,0,0.66152264,1.2246178,-26.435546)" />
    <path
       sodipodi:type="arc"
       style="fill:#000000;fill-opacity:1;stroke:#000000"
       id="path2991-79-7"
       sodipodi:cx="124.75384"
       sodipodi:cy="168.98378"
       sodipodi:rx="6.5659914"
       sodipodi:ry="6.5659914"
       d="m 131.31983,168.98378 c 0,3.6263 -2.9397,6.56599 -6.56599,6.56599 -3.6263,0 -6.56599,-2.93969 -6.56599,-6.56599 0,-3.6263 2.93969,-6.56599 6.56599,-6.56599 3.62629,0 6.56599,2.93969 6.56599,6.56599 z"
       transform="matrix(0.66152264,0,0,0.66152264,-23.124008,-26.435546)" />
    <path
       sodipodi:type="arc"
       style="fill:#000000;fill-opacity:0;stroke:#000000"
       id="path2991-798-53"
       sodipodi:cx="124.75384"
       sodipodi:cy="168.98378"
       sodipodi:rx="6.5659914"
       sodipodi:ry="6.5659914"
       d="m 131.31983,168.98378 c 0,3.6263 -2.9397,6.56599 -6.56599,6.56599 -3.6263,0 -6.56599,-2.93969 -6.56599,-6.56599 0,-3.6263 2.93969,-6.56599 6.56599,-6.56599 3.62629,0 6.56599,2.93969 6.56599,6.56599 z"
       transform="matrix(0.66152264,0,0,0.66152264,-47.472635,-26.435546)" />
    <path
       sodipodi:type="arc"
       style="fill:#000000;fill-opacity:1;stroke:#000000"
       id="path2991-8-1"
       sodipodi:cx="124.75384"
       sodipodi:cy="168.98378"
       sodipodi:rx="6.5659914"
       sodipodi:ry="6.5659914"
       d="m 131.31983,168.98378 c 0,3.6263 -2.9397,6.56599 -6.56599,6.56599 -3.6263,0 -6.56599,-2.93969 -6.56599,-6.56599 0,-3.6263 2.93969,-6.56599 6.56599,-6.56599 3.62629,0 6.56599,2.93969 6.56599,6.56599 z"
       transform="matrix(0.66152264,0,0,0.66152264,49.921869,-50.784172)" />
    <path
       style="fill:none;stroke:#000000;stroke-width:1.0213238px;stroke-linecap:butt;stroke-linejoin:miter;stroke-opacity:1;marker-end:none"
       d="m 87.136319,88.182239 17.760951,18.607851 0,0"
       id="path5071"
       inkscape:connector-curvature="0" />
    <path
       style="fill:none;stroke:#000000;stroke-width:1px;stroke-linecap:butt;stroke-linejoin:miter;stroke-opacity:1;marker-end:none"
       d="m 87.883272,84.636043 15.404828,0.252538 0,0"
       id="path5073"
       inkscape:connector-curvature="0" />
    <path
       style="fill:none;stroke:#000000;stroke-width:0.98138207px;stroke-linecap:butt;stroke-linejoin:miter;stroke-opacity:1;marker-end:none"
       d="m 86.715877,82.267904 17.844223,-17.844221 0,0"
       id="path5075"
       inkscape:connector-curvature="0" />
    <path
       style="fill:none;stroke:#000000;stroke-width:1px;stroke-linecap:butt;stroke-linejoin:miter;stroke-opacity:1;marker-end:none"
       d="m 83.590123,80.595433 0,-15.657365 0,0"
       id="path5077"
       inkscape:connector-curvature="0" />
    <path
       style="fill:none;stroke:#000000;stroke-width:1.02477229px;stroke-linecap:butt;stroke-linejoin:miter;stroke-opacity:1;marker-end:none"
       d="m 79.296975,85.646196 -15.381889,0 0,0"
       id="path5079"
       inkscape:connector-curvature="0" />
    <path
       style="fill:none;stroke:#000000;stroke-width:1.02502489px;stroke-linecap:butt;stroke-linejoin:miter;stroke-opacity:1;marker-end:none"
       d="m 83.842661,89.686806 0.252538,15.920144 0,0"
       id="path5081"
       inkscape:connector-curvature="0" />
    <path
       style="fill:none;stroke:#000000;stroke-width:1.00969934px;stroke-linecap:butt;stroke-linejoin:miter;stroke-opacity:1;marker-end:none"
       d="m 80.228311,82.284384 -17.088927,-18.09908 0,0"
       id="path5083"
       inkscape:connector-curvature="0" />
    <path
       style="fill:none;stroke:#000000;stroke-width:1px;stroke-linecap:butt;stroke-linejoin:miter;stroke-opacity:1;marker-end:none"
       d="m 80.307127,88.424115 -17.677669,18.435285 0,0"
       id="path5085"
       inkscape:connector-curvature="0" />
    <path
       style="fill:none;stroke:#000000;stroke-width:1px;stroke-linecap:butt;stroke-linejoin:miter;stroke-opacity:1;marker-end:none"
       d="m 82.074894,81.100509 -20.708127,-40.65864 0,0"
       id="path5087"
       inkscape:connector-curvature="0" />
    <path
       style="fill:none;stroke:#000000;stroke-width:1.01711512px;stroke-linecap:butt;stroke-linejoin:miter;stroke-opacity:1;marker-end:none"
       d="m 85.871524,81.091951 20.632366,-40.419624 0,0"
       id="path5089"
       inkscape:connector-curvature="0" />
    <path
       style="fill:none;stroke:#000000;stroke-width:1px;stroke-linecap:butt;stroke-linejoin:miter;stroke-opacity:1;marker-end:none"
       d="m 87.630733,83.373352 40.911177,-20.20305 0,0"
       id="path5091"
       inkscape:connector-curvature="0" />
    <path
       style="fill:none;stroke:#000000;stroke-width:1.01674604px;stroke-linecap:butt;stroke-linejoin:miter;stroke-opacity:1;marker-end:none"
       d="m 87.891645,86.412183 40.419995,21.390357 0,0"
       id="path5093"
       inkscape:connector-curvature="0" />
    <path
       style="fill:none;stroke:#000000;stroke-width:1px;stroke-linecap:butt;stroke-linejoin:miter;stroke-opacity:1;marker-end:none"
       d="m 85.610428,89.18173 21.213202,40.4061 0,0"
       id="path5095"
       inkscape:connector-curvature="0" />
    <path
       style="fill:none;stroke:#000000;stroke-width:1px;stroke-linecap:butt;stroke-linejoin:miter;stroke-opacity:1;marker-end:none"
       d="m 82.074894,89.18173 -20.455589,40.65864 0,0"
       id="path5097"
       inkscape:connector-curvature="0" />
    <path
       style="fill:none;stroke:#000000;stroke-width:1px;stroke-linecap:butt;stroke-linejoin:miter;stroke-opacity:1;marker-end:none"
       d="m 79.549513,87.161425 -40.65864,20.455585 0,0"
       id="path5099"
       inkscape:connector-curvature="0" />
    <path
       style="fill:none;stroke:#000000;stroke-width:1px;stroke-linecap:butt;stroke-linejoin:miter;stroke-opacity:1;marker-end:none"
       d="M 79.802051,83.625891 38.890873,63.42284 l 0,0"
       id="path5101"
       inkscape:connector-curvature="0" />
  </g>
</svg>
